{
  "asset": {
    "version": "2.0"
  },
  "scene": 0,
  "buffers": [
    {
      "byteLength": 21872,
      "uri": "barracks.bin"
    }
  ],
  "bufferViews": [
    {
      "buffer": 0,
      "byteOffset": 0,
      "byteLength": 1776,
      "target": 34963
    },
    {
      "buffer": 0,
      "byteOffset": 1776,
      "byteLength": 20096,
      "byteStride": 32,
      "target": 34962
    }
  ],
  "accessors": [
    {
      "bufferView": 0,
      "byteOffset": 0,
      "componentType": 5123,
      "type": "SCALAR",
      "count": 888
    },
    {
      "bufferView": 1,
      "byteOffset": 0,
      "componentType": 5126,
      "type": "VEC3",
      "count": 628,
      "min": [
        -77.78788,
        1.115848,
        -60.4258728
      ],
      "max": [
        77.78788,
        107.535957,
        60.4258728
      ]
    },
    {
      "bufferView": 1,
      "byteOffset": 12,
      "componentType": 5126,
      "type": "VEC3",
      "count": 628
    },
    {
      "bufferView": 1,
      "byteOffset": 24,
      "componentType": 5126,
      "type": "VEC2",
      "count": 628
    }
  ],
  "meshes": [
    {
      "primitives": [
        {
          "attributes": {
            "POSITION": 1,
            "NORMAL": 2,
            "TEXCOORD_0": 3
          },
          "indices": 0,
          "material": 0,
          "mode": 4
        }
      ]
    }
  ],
  "images": [
    {
      "uri": "barracks.png"
    }
  ],
  "textures": [
    {
      "source": 0
    }
  ],
  "materials": [
    {
      "doubleSided": true,
      "pbrMetallicRoughness": {
        "baseColorTexture": {
          "index": 0
        }
      }
    }
  ],
  "scenes": [
    {
      "nodes": [
        0
      ]
    }
  ],
  "nodes": [
    {
      "children": [
        1,
        3,
        4,
        5,
        6,
        7,
        8,
        9,
        10
      ]
    },
    {
      "name": "bingying",
      "translation": [
        -0.369004,
        0.0,
        0.0
      ],
      "scale": [
        -3.5155,
        3.5155,
        3.5155
      ],
      "rotation": [
        0.0,
        -0.707106769,
        0.0,
        0.707106769
      ],
      "children": [
        2
      ]
    },
    {
      "mesh": 0
    },
    {
      "name": "Particle_View01"
    },
    {
      "name": "____01",
      "translation": [
        -0.369004,
        0.0,
        0.0
      ],
      "scale": [
        -3.5155,
        3.5155,
        3.5155
      ]
    },
    {
      "name": "fire1",
      "translation": [
        -139.388428,
        162.7181,
        -187.866089
      ]
    },
    {
      "name": "fire4",
      "translation": [
        -47.934082,
        254.0006,
        -37.57329
      ]
    },
    {
      "name": "fire2",
      "translation": [
        52.2980652,
        177.478226,
        -148.20549
      ]
    },
    {
      "name": "fire5",
      "translation": [
        72.22484,
        181.1775,
        106.4573
      ]
    },
    {
      "name": "fire6",
      "translation": [
        -133.137756,
        156.814026,
        160.729691
      ]
    },
    {
      "name": "fire3",
      "translation": [
        146.862579,
        68.65461,
        -25.0489
      ]
    }
  ]
}