{
  "asset": {
    "version": "2.0"
  },
  "scene": 0,
  "buffers": [
    {
      "byteLength": 19996,
      "uri": "altar.bin"
    }
  ],
  "bufferViews": [
    {
      "buffer": 0,
      "byteOffset": 0,
      "byteLength": 18688,
      "byteStride": 32,
      "target": 34962
    },
    {
      "buffer": 0,
      "byteOffset": 18688,
      "byteLength": 1308,
      "target": 34963
    }
  ],
  "accessors": [
    {
      "bufferView": 0,
      "byteOffset": 0,
      "componentType": 5126,
      "type": "VEC3",
      "count": 584,
      "min": [
        -29.0460072,
        -10.00106,
        -29.0460072
      ],
      "max": [
        29.0460072,
        49.8297119,
        29.0460072
      ]
    },
    {
      "bufferView": 0,
      "byteOffset": 12,
      "componentType": 5126,
      "type": "VEC3",
      "count": 584
    },
    {
      "bufferView": 0,
      "byteOffset": 24,
      "componentType": 5126,
      "type": "VEC2",
      "count": 584
    },
    {
      "bufferView": 1,
      "byteOffset": 0,
      "componentType": 5123,
      "type": "SCALAR",
      "count": 654
    }
  ],
  "meshes": [
    {
      "primitives": [
        {
          "attributes": {
            "POSITION": 0,
            "NORMAL": 1,
            "TEXCOORD_0": 2
          },
          "indices": 3,
          "material": 0,
          "mode": 4
        }
      ]
    }
  ],
  "images": [
    {
      "uri": "altar.png"
    }
  ],
  "textures": [
    {
      "source": 0
    }
  ],
  "materials": [
    {
      "doubleSided": true,
      "pbrMetallicRoughness": {
        "baseColorTexture": {
          "index": 0
        }
      }
    }
  ],
  "scenes": [
    {
      "nodes": [
        0
      ]
    }
  ],
  "nodes": [
    {
      "children": [
        1,
        3,
        4,
        5,
        6,
        7,
        8
      ]
    },
    {
      "name": "Box01",
      "translation": [
        -0.369004,
        7.796122,
        0.0
      ],
      "scale": [
        1.0,
        0.803024,
        1.0
      ],
      "children": [
        2
      ]
    },
    {
      "mesh": 0
    },
    {
      "name": "fire1",
      "translation": [
        -23.3608685,
        17.2769051,
        -21.9218464
      ]
    },
    {
      "name": "fire2",
      "translation": [
        -3.065667,
        20.9262085,
        -16.3946533
      ]
    },
    {
      "name": "fire3",
      "translation": [
        21.1040726,
        21.9699078,
        -5.501184
      ]
    },
    {
      "name": "fire4",
      "translation": [
        -17.8258133,
        20.9262066,
        17.0080376
      ]
    },
    {
      "name": "fire5",
      "translation": [
        0.06543,
        48.8451843,
        0.939727
      ]
    },
    {
      "name": "fire6",
      "translation": [
        7.819941,
        18.57789,
        18.4070549
      ]
    }
  ]
}