{
  "asset": {
    "version": "2.0"
  },
  "scene": 0,
  "buffers": [
    {
      "byteLength": 84784,
      "uri": "farm.bin"
    }
  ],
  "bufferViews": [
    {
      "buffer": 0,
      "byteOffset": 0,
      "byteLength": 78784,
      "byteStride": 32,
      "target": 34962
    },
    {
      "buffer": 0,
      "byteOffset": 78784,
      "byteLength": 6000,
      "target": 34963
    }
  ],
  "accessors": [
    {
      "bufferView": 0,
      "byteOffset": 0,
      "componentType": 5126,
      "type": "VEC3",
      "count": 2462,
      "min": [
        -61.75993,
        -92.87261,
        -52.8997459
      ],
      "max": [
        52.94657,
        1.570114,
        54.98471
      ]
    },
    {
      "bufferView": 0,
      "byteOffset": 12,
      "componentType": 5126,
      "type": "VEC3",
      "count": 2462
    },
    {
      "bufferView": 0,
      "byteOffset": 24,
      "componentType": 5126,
      "type": "VEC2",
      "count": 2462
    },
    {
      "bufferView": 1,
      "byteOffset": 0,
      "componentType": 5123,
      "type": "SCALAR",
      "count": 3000
    }
  ],
  "meshes": [
    {
      "primitives": [
        {
          "attributes": {
            "POSITION": 0,
            "NORMAL": 1,
            "TEXCOORD_0": 2
          },
          "indices": 3,
          "material": 0,
          "mode": 4
        }
      ]
    }
  ],
  "images": [
    {
      "uri": "farm.png"
    }
  ],
  "textures": [
    {
      "source": 0
    }
  ],
  "materials": [
    {
      "doubleSided": true,
      "pbrMetallicRoughness": {
        "baseColorTexture": {
          "index": 0
        }
      }
    }
  ],
  "scenes": [
    {
      "nodes": [
        0
      ]
    }
  ],
  "nodes": [
    {
      "children": [
        1,
        3,
        4,
        5,
        6,
        7,
        8,
        9,
        10
      ]
    },
    {
      "name": "minfang",
      "translation": [
        -0.769795,
        6.842514,
        -3.584503
      ],
      "scale": [
        -0.534545,
        0.534545,
        0.534545
      ],
      "rotation": [
        0.0,
        0.0,
        1.0,
        0.0
      ],
      "children": [
        2
      ]
    },
    {
      "mesh": 0
    },
    {
      "name": "Object01",
      "translation": [
        -0.769795,
        6.842514,
        -3.584503
      ],
      "scale": [
        -0.534545,
        0.534545,
        0.534545
      ],
      "rotation": [
        0.0,
        0.0,
        1.0,
        0.0
      ]
    },
    {
      "name": "Cylinder01",
      "translation": [
        -2.015747,
        6.419046,
        -6.106567
      ],
      "scale": [
        -1.0,
        1.0,
        1.0
      ],
      "rotation": [
        0.0,
        0.0,
        1.0,
        0.0
      ]
    },
    {
      "name": "fire6",
      "translation": [
        15.4059048,
        15.0343761,
        10.5166082
      ]
    },
    {
      "name": "fire1",
      "translation": [
        -10.9778566,
        25.800518,
        -18.63468
      ]
    },
    {
      "name": "fire4",
      "translation": [
        -20.018446,
        27.3000851,
        2.398528
      ]
    },
    {
      "name": "fire3",
      "translation": [
        -2.114263,
        35.0572624,
        -2.335788
      ]
    },
    {
      "name": "fire2",
      "translation": [
        8.210334,
        27.5743446,
        -12.915123
      ]
    },
    {
      "name": "fire5",
      "translation": [
        -7.656823,
        26.14436,
        11.6236191
      ]
    }
  ]
}