{
  "asset": {
    "version": "2.0"
  },
  "scene": 0,
  "buffers": [
    {
      "byteLength": 124092,
      "uri": "follower.bin"
    }
  ],
  "bufferViews": [
    {
      "buffer": 0,
      "byteOffset": 0,
      "byteLength": 4596,
      "target": 34963
    },
    {
      "buffer": 0,
      "byteOffset": 4596,
      "byteLength": 119496,
      "byteStride": 52,
      "target": 34962
    }
  ],
  "accessors": [
    {
      "bufferView": 0,
      "byteOffset": 0,
      "componentType": 5123,
      "type": "SCALAR",
      "count": 2298
    },
    {
      "bufferView": 1,
      "byteOffset": 0,
      "componentType": 5126,
      "type": "VEC3",
      "count": 2298,
      "min": [
        -35.5324249,
        -0.248714224,
        -16.0599079
      ],
      "max": [
        35.7785645,
        119.829987,
        31.8406868
      ]
    },
    {
      "bufferView": 1,
      "byteOffset": 12,
      "componentType": 5126,
      "type": "VEC3",
      "count": 2298
    },
    {
      "bufferView": 1,
      "byteOffset": 24,
      "componentType": 5126,
      "type": "VEC2",
      "count": 2298
    },
    {
      "bufferView": 1,
      "byteOffset": 32,
      "componentType": 5121,
      "type": "VEC4",
      "count": 2298
    },
    {
      "bufferView": 1,
      "byteOffset": 36,
      "componentType": 5126,
      "type": "VEC4",
      "count": 2298
    }
  ],
  "meshes": [
    {
      "primitives": [
        {
          "attributes": {
            "POSITION": 1,
            "NORMAL": 2,
            "TEXCOORD_0": 3,
            "JOINTS_0": 4,
            "WEIGHTS_0": 5
          },
          "indices": 0,
          "material": 0,
          "mode": 4
        }
      ]
    }
  ],
  "images": [
    {
      "uri": "follower.png"
    }
  ],
  "textures": [
    {
      "source": 0
    }
  ],
  "materials": [
    {
      "doubleSided": true,
      "pbrMetallicRoughness": {
        "baseColorTexture": {
          "index": 0
        }
      }
    }
  ],
  "scenes": [
    {
      "nodes": [
        0
      ]
    }
  ],
  "nodes": [
    {
      "children": [
        1,
        3
      ]
    },
    {
      "name": "tuzhu_nongmin",
      "children": [
        2
      ]
    },
    {
      "mesh": 0
    },
    {
      "name": "Bip01",
      "translation": [
        0.0,
        33.64897,
        -0.126115
      ],
      "scale": [
        1.00000048,
        1.00000048,
        1.0
      ],
      "rotation": [
        -0.113662347,
        0.6979125,
        -0.11366199,
        0.6979111
      ],
      "children": [
        4,
        5
      ]
    },
    {
      "name": "Bip01_Footprint",
      "translation": [
        10.4470587,
        -31.2229614,
        -3E-06
      ],
      "scale": [
        1.0,
        1.00000048,
        1.00000048
      ],
      "rotation": [
        0.113662347,
        -0.6979125,
        0.11366199,
        0.6979111
      ]
    },
    {
      "name": "Bip01_Pelvis",
      "translation": [
        -6.44489241,
        7.08146524,
        0.0141624352
      ],
      "scale": [
        0.9999995,
        0.99999994,
        0.9999994
      ],
      "rotation": [
        -0.4131266,
        -0.5738693,
        0.5738697,
        0.413127065
      ],
      "children": [
        6
      ]
    },
    {
      "name": "Bip01_Spine",
      "translation": [
        11.8374023,
        -9.975796E-06,
        0.009280532
      ],
      "scale": [
        1.0,
        1.0,
        0.9999999
      ],
      "rotation": [
        -2.048889E-06,
        -0.0483175553,
        -4.123425E-08,
        0.998832047
      ],
      "children": [
        7,
        47,
        54
      ]
    },
    {
      "name": "Bip01_Spine1",
      "translation": [
        11.7034321,
        -8.389354E-07,
        0.00946023
      ],
      "scale": [
        0.9999998,
        1.00000012,
        1.0
      ],
      "rotation": [
        3.329169E-09,
        -0.025238052,
        -1.260745E-07,
        0.9996815
      ],
      "children": [
        8,
        46
      ]
    },
    {
      "name": "Bip01_Neck",
      "translation": [
        13.150773,
        -9.231829E-07,
        1.290958
      ],
      "scale": [
        1.0,
        0.99999994,
        1.0
      ],
      "rotation": [
        1.96539762E-08,
        0.33597225,
        9.27427664E-07,
        0.9418719
      ],
      "children": [
        9,
        11,
        29
      ]
    },
    {
      "name": "Bip01_Head",
      "translation": [
        10.1016111,
        5.56880923E-06,
        1.12458531E-06
      ],
      "scale": [
        1.00000012,
        1.00000012,
        1.0
      ],
      "rotation": [
        5.32754541E-07,
        -0.23933357,
        -4.838256E-07,
        0.970937431
      ],
      "children": [
        10
      ]
    },
    {
      "name": "Bip01_HeadNub",
      "translation": [
        28.46283,
        0.0,
        -6E-06
      ]
    },
    {
      "name": "Bip01_L_Clavicle",
      "translation": [
        -0.1539142,
        9.347353,
        -1.79318166
      ],
      "scale": [
        1.0,
        1.00000012,
        1.00000012
      ],
      "rotation": [
        0.665909648,
        0.665909052,
        0.237834275,
        0.237832487
      ],
      "children": [
        12,
        28
      ]
    },
    {
      "name": "Bip01_L_UpperArm",
      "translation": [
        5.951217,
        -1.29330865E-05,
        -3.48496542E-06
      ],
      "scale": [
        1.0,
        0.9999999,
        1.00000012
      ],
      "rotation": [
        0.117881283,
        0.0971465856,
        -0.5609796,
        0.8136144
      ],
      "children": [
        13
      ]
    },
    {
      "name": "Bip01_L_Forearm",
      "translation": [
        16.64768,
        -6.201088E-06,
        3.89496745E-06
      ],
      "scale": [
        0.99999994,
        1.00000012,
        1.0
      ],
      "rotation": [
        3.1358347E-08,
        -0.165533021,
        4.38312462E-08,
        0.986204267
      ],
      "children": [
        14
      ]
    },
    {
      "name": "Bip01_L_Hand",
      "translation": [
        10.7667542,
        -1.08601955E-06,
        4.05009951E-06
      ],
      "scale": [
        1.00000012,
        1.00000012,
        1.00000024
      ],
      "rotation": [
        -0.7067961,
        -0.006425602,
        0.00643075,
        0.7073589
      ],
      "children": [
        15,
        18,
        21,
        24,
        27
      ]
    },
    {
      "name": "Bip01_L_Finger0",
      "translation": [
        5.469976,
        -4.963124,
        -2.949974
      ],
      "scale": [
        0.99999994,
        1.0,
        0.9999998
      ],
      "rotation": [
        0.484473437,
        -0.08709756,
        -0.2758504,
        0.825594366
      ],
      "children": [
        16
      ]
    },
    {
      "name": "Bip01_L_Finger01",
      "translation": [
        4.51816273,
        -3.14456133E-06,
        -5.42348835E-06
      ],
      "scale": [
        0.9999999,
        0.9999999,
        1.00000012
      ],
      "rotation": [
        2.66142763E-07,
        0.342897952,
        -2.09506382E-07,
        0.939372659
      ],
      "children": [
        17
      ]
    },
    {
      "name": "Bip01_L_Finger0Nub",
      "translation": [
        4.51816,
        0.0,
        0.0
      ]
    },
    {
      "name": "Bip01_L_Finger1",
      "translation": [
        14.794776,
        -3.69868875,
        0.00295007252
      ],
      "scale": [
        0.99999994,
        0.9999999,
        0.9999999
      ],
      "rotation": [
        -0.0003947044,
        -4.8791404E-05,
        -0.122872226,
        0.9924224
      ],
      "children": [
        19
      ]
    },
    {
      "name": "Bip01_L_Finger11",
      "translation": [
        3.69871235,
        -2.3248117E-06,
        -9.696558E-06
      ],
      "scale": [
        0.999999762,
        0.9999999,
        0.9999998
      ],
      "rotation": [
        -2.39682237E-07,
        0.2864667,
        2.59552735E-08,
        0.9580902
      ],
      "children": [
        20
      ]
    },
    {
      "name": "Bip01_L_Finger1Nub",
      "translation": [
        3.698696,
        0.0,
        0.0
      ]
    },
    {
      "name": "Bip01_L_Finger2",
      "translation": [
        14.2275467,
        -0.2954173,
        0.235446692
      ],
      "scale": [
        0.99999994,
        0.99999994,
        0.9999999
      ],
      "rotation": [
        -0.000396674,
        -3.29152135E-05,
        -0.08262948,
        0.996580243
      ],
      "children": [
        22
      ]
    },
    {
      "name": "Bip01_L_Finger21",
      "translation": [
        4.438429,
        -5.52058E-07,
        -8.204853E-06
      ],
      "scale": [
        1.0,
        0.9999998,
        1.0
      ],
      "rotation": [
        7.509174E-09,
        0.30563736,
        5.559487E-10,
        0.952148
      ],
      "children": [
        23
      ]
    },
    {
      "name": "Bip01_L_Finger2Nub",
      "translation": [
        4.438435,
        2E-06,
        -4E-06
      ]
    },
    {
      "name": "Bip01_L_Finger3",
      "translation": [
        14.794776,
        3.69869566,
        -0.00294051948
      ],
      "scale": [
        0.99999994,
        0.999999642,
        0.999999762
      ],
      "rotation": [
        -0.000398011121,
        6.565104E-09,
        -9.182404E-08,
        0.99999994
      ],
      "children": [
        25
      ]
    },
    {
      "name": "Bip01_L_Finger31",
      "translation": [
        3.698707,
        -3.10009568E-06,
        -7.09433971E-06
      ],
      "scale": [
        0.9999998,
        0.99999994,
        1.0
      ],
      "rotation": [
        9.370134E-08,
        0.344874978,
        3.945252E-08,
        0.938648641
      ],
      "children": [
        26
      ]
    },
    {
      "name": "Bip01_L_Finger3Nub",
      "translation": [
        3.698694,
        2E-06,
        -4E-06
      ]
    },
    {
      "name": "zuoshou_nongmin",
      "translation": [
        9.955429,
        0.516915,
        3.399853
      ],
      "scale": [
        0.9999998,
        0.9999999,
        1.00000012
      ],
      "rotation": [
        0.8227062,
        -0.139956415,
        0.4396746,
        0.3320438
      ]
    },
    {
      "name": "Wood",
      "translation": [
        4.798438,
        4.31023,
        1.33065
      ],
      "scale": [
        1.00000012,
        1.00000072,
        1.00000036
      ],
      "rotation": [
        0.0602910928,
        -0.7651079,
        0.124991119,
        0.6287703
      ]
    },
    {
      "name": "Bip01_R_Clavicle",
      "translation": [
        -0.153930634,
        -9.347334,
        -1.79324293
      ],
      "scale": [
        1.00000012,
        1.0,
        1.00000012
      ],
      "rotation": [
        -0.665909,
        0.6659097,
        -0.237832472,
        0.23783426
      ],
      "children": [
        30
      ]
    },
    {
      "name": "Bip01_R_UpperArm",
      "translation": [
        5.95121,
        -1.01665837E-05,
        -2.32465618E-06
      ],
      "scale": [
        1.0,
        0.9999999,
        0.99999994
      ],
      "rotation": [
        -0.117881313,
        0.09714659,
        0.5609795,
        0.8136145
      ],
      "children": [
        31
      ]
    },
    {
      "name": "Bip01_R_Forearm",
      "translation": [
        16.6476879,
        -5.28997134E-07,
        6.692757E-06
      ],
      "scale": [
        1.00000012,
        0.99999994,
        1.00000012
      ],
      "rotation": [
        4.30230038E-08,
        -0.165533036,
        9.43003755E-08,
        0.986204267
      ],
      "children": [
        32
      ]
    },
    {
      "name": "Bip01_R_Hand",
      "translation": [
        10.7667618,
        3.08025028E-06,
        -9.558722E-06
      ],
      "scale": [
        0.9999999,
        0.999999762,
        0.9999999
      ],
      "rotation": [
        0.706795931,
        -0.00642566662,
        -0.00643076375,
        0.7073591
      ],
      "children": [
        33,
        36,
        39,
        42,
        45
      ]
    },
    {
      "name": "Bip01_R_Finger0",
      "translation": [
        5.469966,
        4.96312952,
        -2.949978
      ],
      "scale": [
        1.0,
        1.00000036,
        1.00000024
      ],
      "rotation": [
        -0.4844734,
        -0.087097615,
        0.2758504,
        0.825594366
      ],
      "children": [
        34
      ]
    },
    {
      "name": "Bip01_R_Finger01",
      "translation": [
        4.518174,
        -5.740878E-07,
        8.643844E-06
      ],
      "scale": [
        0.99999994,
        0.9999998,
        0.99999994
      ],
      "rotation": [
        3.002937E-08,
        0.342897862,
        -1.893178E-08,
        0.9393727
      ],
      "children": [
        35
      ]
    },
    {
      "name": "Bip01_R_Finger0Nub",
      "translation": [
        4.518166,
        0.0,
        0.0
      ],
      "scale": [
        -1.0,
        1.0,
        1.0
      ],
      "rotation": [
        0.0,
        0.0,
        1.0,
        0.0
      ]
    },
    {
      "name": "Bip01_R_Finger1",
      "translation": [
        14.7947807,
        3.69869924,
        0.002941195
      ],
      "scale": [
        0.9999999,
        0.99999994,
        0.99999994
      ],
      "rotation": [
        0.000395216281,
        -4.89801E-05,
        0.122872122,
        0.992422462
      ],
      "children": [
        37
      ]
    },
    {
      "name": "Bip01_R_Finger11",
      "translation": [
        3.69871044,
        5.04472064E-06,
        6.835081E-06
      ],
      "scale": [
        1.00000036,
        1.00000024,
        1.00000036
      ],
      "rotation": [
        -1.8446859E-07,
        0.286466777,
        -3.89998567E-09,
        0.9580902
      ],
      "children": [
        38
      ]
    },
    {
      "name": "Bip01_R_Finger1Nub",
      "translation": [
        3.6987,
        -1E-06,
        0.0
      ],
      "scale": [
        -1.0,
        1.0,
        1.0
      ],
      "rotation": [
        0.0,
        0.0,
        1.0,
        0.0
      ]
    },
    {
      "name": "Bip01_R_Finger2",
      "translation": [
        14.2275467,
        0.295424342,
        0.235444948
      ],
      "scale": [
        1.0,
        1.0,
        1.00000024
      ],
      "rotation": [
        0.000396854273,
        -3.291798E-05,
        0.08262946,
        0.996580243
      ],
      "children": [
        40
      ]
    },
    {
      "name": "Bip01_R_Finger21",
      "translation": [
        4.43843269,
        9.57757E-07,
        -9.410864E-06
      ],
      "scale": [
        0.99999994,
        1.00000024,
        0.9999998
      ],
      "rotation": [
        -8.397458E-08,
        0.30563733,
        1.8361062E-08,
        0.952148
      ],
      "children": [
        41
      ]
    },
    {
      "name": "Bip01_R_Finger2Nub",
      "translation": [
        4.438435,
        1E-06,
        0.0
      ],
      "scale": [
        -1.0,
        1.0,
        1.0
      ],
      "rotation": [
        0.0,
        0.0,
        1.0,
        0.0
      ]
    },
    {
      "name": "Bip01_R_Finger3",
      "translation": [
        14.7947865,
        -3.698699,
        -0.002949
      ],
      "scale": [
        1.0,
        1.00000036,
        1.00000036
      ],
      "rotation": [
        0.000397999916,
        0.0,
        0.0,
        0.9999999
      ],
      "children": [
        43
      ]
    },
    {
      "name": "Bip01_R_Finger31",
      "translation": [
        3.69869018,
        8.36714753E-06,
        -1.02157423E-06
      ],
      "scale": [
        0.999999762,
        0.999999762,
        0.999999762
      ],
      "rotation": [
        3.46923542E-07,
        0.344874829,
        5.78324233E-08,
        0.9386487
      ],
      "children": [
        44
      ]
    },
    {
      "name": "Bip01_R_Finger3Nub",
      "translation": [
        3.698696,
        0.0,
        0.0
      ],
      "scale": [
        -1.0,
        1.0,
        1.0
      ],
      "rotation": [
        0.0,
        0.0,
        1.0,
        0.0
      ]
    },
    {
      "name": "Weapon",
      "translation": [
        15.6418819,
        1.353132,
        -0.249893
      ],
      "scale": [
        1.00000024,
        1.00000012,
        1.0
      ],
      "rotation": [
        0.163250685,
        -0.236395121,
        0.237709656,
        0.9278797
      ]
    },
    {
      "name": "Gold",
      "translation": [
        -0.087086,
        -0.428246,
        14.9492455
      ],
      "scale": [
        0.817979,
        0.8179786,
        0.8179797
      ],
      "rotation": [
        0.4183147,
        0.379682153,
        -0.5433937,
        0.620948553
      ]
    },
    {
      "name": "Bip01_L_Thigh",
      "translation": [
        -11.7830257,
        9.094592,
        1.13335836
      ],
      "scale": [
        1.0,
        1.00000012,
        1.0
      ],
      "rotation": [
        -0.001661454,
        -8.7262124E-05,
        0.998667538,
        0.0515789837
      ],
      "children": [
        48
      ]
    },
    {
      "name": "Bip01_L_Calf",
      "translation": [
        19.0006618,
        4.22515632E-06,
        2.050935E-06
      ],
      "scale": [
        0.99999994,
        0.9999998,
        1.0
      ],
      "rotation": [
        1.79117734E-07,
        -0.0998334661,
        1.78328641E-08,
        0.9950042
      ],
      "children": [
        49
      ]
    },
    {
      "name": "Bip01_L_Foot",
      "translation": [
        18.7465515,
        -1.17515435E-06,
        -1.31354534E-06
      ],
      "scale": [
        0.99999994,
        1.0,
        1.00000012
      ],
      "rotation": [
        0.00770777976,
        0.04991258,
        0.05099983,
        0.997420847
      ],
      "children": [
        50
      ]
    },
    {
      "name": "Bip01_L_Toe0",
      "translation": [
        5.312905,
        0.0,
        -15.7140293
      ],
      "scale": [
        1.00000036,
        1.0,
        1.00000036
      ],
      "rotation": [
        0.0,
        0.7132502,
        0.0,
        0.700909436
      ],
      "children": [
        51
      ]
    },
    {
      "name": "Bip01_L_Toe01",
      "translation": [
        0.686348,
        0.0,
        0.0
      ],
      "children": [
        52
      ]
    },
    {
      "name": "Bip01_L_Toe02",
      "translation": [
        0.68635,
        4E-06,
        0.0
      ],
      "children": [
        53
      ]
    },
    {
      "name": "Bip01_L_Toe0Nub",
      "translation": [
        0.686346,
        -2E-06,
        0.0
      ],
      "scale": [
        -1.0,
        1.0,
        1.0
      ],
      "rotation": [
        0.0,
        0.0,
        1.0,
        0.0
      ]
    },
    {
      "name": "Bip01_R_Thigh",
      "translation": [
        -11.7830238,
        -9.094588,
        1.13331
      ],
      "scale": [
        1.00000012,
        1.00000036,
        1.0
      ],
      "rotation": [
        -0.0016615889,
        8.442921E-05,
        0.998667538,
        -0.05157896
      ],
      "children": [
        55
      ]
    },
    {
      "name": "Bip01_R_Calf",
      "translation": [
        19.0006676,
        -4.44473062E-06,
        -5.019908E-08
      ],
      "scale": [
        0.9999997,
        0.999999762,
        1.00000012
      ],
      "rotation": [
        9.37847E-08,
        -0.0998334438,
        3.3140175E-08,
        0.9950042
      ],
      "children": [
        56
      ]
    },
    {
      "name": "Bip01_R_Foot",
      "translation": [
        18.7465515,
        5.21566449E-07,
        -4.706746E-07
      ],
      "scale": [
        1.00000012,
        0.99999994,
        1.0
      ],
      "rotation": [
        -0.007707968,
        0.04991255,
        -0.0509999059,
        0.997420847
      ],
      "children": [
        57
      ]
    },
    {
      "name": "Bip01_R_Toe0",
      "translation": [
        5.312905,
        0.0,
        -15.7140331
      ],
      "scale": [
        1.00000036,
        1.0,
        1.00000036
      ],
      "rotation": [
        0.0,
        0.7132502,
        0.0,
        0.700909436
      ],
      "children": [
        58
      ]
    },
    {
      "name": "Bip01_R_Toe01",
      "translation": [
        0.686348,
        2E-06,
        0.0
      ],
      "children": [
        59
      ]
    },
    {
      "name": "Bip01_R_Toe02",
      "translation": [
        0.68635,
        -2E-06,
        0.0
      ],
      "children": [
        60
      ]
    },
    {
      "name": "Bip01_R_Toe0Nub",
      "translation": [
        0.686348,
        2E-06,
        0.0
      ]
    }
  ]
}