{
  "asset": {
    "version": "2.0"
  },
  "scene": 0,
  "buffers": [
    {
      "byteLength": 4048,
      "uri": "hammer.bin"
    }
  ],
  "bufferViews": [
    {
      "buffer": 0,
      "byteOffset": 0,
      "byteLength": 3712,
      "byteStride": 32,
      "target": 34962
    },
    {
      "buffer": 0,
      "byteOffset": 3712,
      "byteLength": 336,
      "target": 34963
    }
  ],
  "accessors": [
    {
      "bufferView": 0,
      "byteOffset": 0,
      "componentType": 5126,
      "type": "VEC3",
      "count": 116,
      "min": [
        -23.5802383,
        -25.1535645,
        -10.0063944
      ],
      "max": [
        113.656311,
        16.20164,
        10.0063944
      ]
    },
    {
      "bufferView": 0,
      "byteOffset": 12,
      "componentType": 5126,
      "type": "VEC3",
      "count": 116
    },
    {
      "bufferView": 0,
      "byteOffset": 24,
      "componentType": 5126,
      "type": "VEC2",
      "count": 116
    },
    {
      "bufferView": 1,
      "byteOffset": 0,
      "componentType": 5123,
      "type": "SCALAR",
      "count": 168
    }
  ],
  "meshes": [
    {
      "primitives": [
        {
          "attributes": {
            "POSITION": 0,
            "NORMAL": 1,
            "TEXCOORD_0": 2
          },
          "indices": 3,
          "material": 0,
          "mode": 4
        }
      ]
    }
  ],
  "images": [
    {
      "uri": "hammer.png"
    }
  ],
  "textures": [
    {
      "source": 0
    }
  ],
  "materials": [
    {
      "pbrMetallicRoughness": {
        "baseColorTexture": {
          "index": 0
        }
      }
    }
  ],
  "scenes": [
    {
      "nodes": [
        0
      ]
    }
  ],
  "nodes": [
    {
      "mesh": 0
    }
  ]
}