{
  "asset": {
    "version": "2.0"
  },
  "scene": 0,
  "buffers": [
    {
      "byteLength": 250128,
      "uri": "hellfire.bin"
    }
  ],
  "bufferViews": [
    {
      "buffer": 0,
      "byteOffset": 0,
      "byteLength": 9264,
      "target": 34963
    },
    {
      "buffer": 0,
      "byteOffset": 9264,
      "byteLength": 240864,
      "byteStride": 52,
      "target": 34962
    }
  ],
  "accessors": [
    {
      "bufferView": 0,
      "byteOffset": 0,
      "componentType": 5123,
      "type": "SCALAR",
      "count": 4632
    },
    {
      "bufferView": 1,
      "byteOffset": 0,
      "componentType": 5126,
      "type": "VEC3",
      "count": 4632,
      "min": [
        -96.43079,
        -1.34642851,
        -96.11552
      ],
      "max": [
        95.44258,
        169.822739,
        85.658165
      ]
    },
    {
      "bufferView": 1,
      "byteOffset": 12,
      "componentType": 5126,
      "type": "VEC3",
      "count": 4632
    },
    {
      "bufferView": 1,
      "byteOffset": 24,
      "componentType": 5126,
      "type": "VEC2",
      "count": 4632
    },
    {
      "bufferView": 1,
      "byteOffset": 32,
      "componentType": 5121,
      "type": "VEC4",
      "count": 4632
    },
    {
      "bufferView": 1,
      "byteOffset": 36,
      "componentType": 5126,
      "type": "VEC4",
      "count": 4632
    }
  ],
  "meshes": [
    {
      "primitives": [
        {
          "attributes": {
            "POSITION": 1,
            "NORMAL": 2,
            "TEXCOORD_0": 3,
            "JOINTS_0": 4,
            "WEIGHTS_0": 5
          },
          "indices": 0,
          "material": 0,
          "mode": 4
        }
      ]
    }
  ],
  "images": [
    {
      "uri": "hellfire.png"
    }
  ],
  "textures": [
    {
      "source": 0
    }
  ],
  "materials": [
    {
      "doubleSided": true,
      "pbrMetallicRoughness": {
        "baseColorTexture": {
          "index": 0
        }
      }
    }
  ],
  "scenes": [
    {
      "nodes": [
        0
      ]
    }
  ],
  "nodes": [
    {
      "children": [
        1,
        3
      ]
    },
    {
      "name": "tuzhu_zhaohuanshou",
      "children": [
        2
      ]
    },
    {
      "mesh": 0
    },
    {
      "name": "Bip01",
      "translation": [
        0.0,
        66.4576645,
        -0.126115
      ],
      "scale": [
        1.00000048,
        1.00000048,
        1.0
      ],
      "rotation": [
        -0.113662347,
        0.6979125,
        -0.11366199,
        0.6979111
      ],
      "children": [
        4,
        5
      ]
    },
    {
      "name": "Bip01_Footprint",
      "translation": [
        21.5910053,
        -64.52871,
        -6E-06
      ],
      "scale": [
        1.0,
        1.00000048,
        1.00000048
      ],
      "rotation": [
        0.113662347,
        -0.6979125,
        0.11366199,
        0.6979111
      ]
    },
    {
      "name": "Bip01_Pelvis",
      "translation": [
        18.4157066,
        0.010603386,
        -0.65620923
      ],
      "scale": [
        0.999999464,
        1.0,
        0.999999464
      ],
      "rotation": [
        0.413126558,
        0.5738689,
        0.5738701,
        0.413127244
      ],
      "children": [
        6,
        51
      ]
    },
    {
      "name": "Bip01_Spine",
      "translation": [
        16.3596783,
        -0.000165879726,
        6.495398
      ],
      "scale": [
        1.00000012,
        1.0,
        1.00000012
      ],
      "rotation": [
        3.76016967E-14,
        0.220349908,
        1.74960957E-14,
        0.9754209
      ],
      "children": [
        7,
        33,
        40,
        47
      ]
    },
    {
      "name": "Bip01_Spine1",
      "translation": [
        20.5466576,
        0.0,
        0.0285898969
      ],
      "rotation": [
        1.56204072E-21,
        6.430785E-10,
        4.1996092E-22,
        1.0
      ],
      "children": [
        8
      ]
    },
    {
      "name": "Bip01_Neck",
      "translation": [
        35.91066,
        -0.000121176243,
        0.0108046727
      ],
      "scale": [
        0.99999994,
        1.0,
        0.99999994
      ],
      "rotation": [
        6.497933E-30,
        0.223839819,
        9.247224E-30,
        0.974625945
      ],
      "children": [
        9,
        17,
        25
      ]
    },
    {
      "name": "Bip01_Neck1",
      "translation": [
        15.1410046,
        -9.793043E-05,
        0.009365986
      ],
      "scale": [
        0.9999998,
        1.0,
        0.9999998
      ],
      "rotation": [
        6.35707232E-37,
        0.274659425,
        -8.530907E-38,
        0.9615416
      ],
      "children": [
        10
      ]
    },
    {
      "name": "Bip01_Neck2",
      "translation": [
        13.8860464,
        7.748604E-07,
        0.0116871884
      ],
      "scale": [
        1.00000012,
        1.0,
        1.00000012
      ],
      "rotation": [
        -1.541428E-44,
        0.09697463,
        2.382207E-44,
        0.9952869
      ],
      "children": [
        11
      ]
    },
    {
      "name": "Bip01_Head",
      "translation": [
        14.8852978,
        -3.85642052E-05,
        3.52226234E-05
      ],
      "scale": [
        1.00000024,
        1.0,
        1.00000024
      ],
      "rotation": [
        0.0,
        0.183998108,
        0.0,
        0.9829266
      ],
      "children": [
        12,
        13,
        16
      ]
    },
    {
      "name": "Bip01_HeadNub",
      "translation": [
        42.267952,
        0.0,
        0.0
      ]
    },
    {
      "name": "Bip01_Tail_1",
      "translation": [
        2.4480443,
        0.000171661377,
        -7.327728
      ],
      "scale": [
        1.00000036,
        1.0,
        1.00000036
      ],
      "rotation": [
        0.940170169,
        0.0,
        -0.3407052,
        0.0
      ],
      "children": [
        14
      ]
    },
    {
      "name": "Bip01_Tail_11",
      "translation": [
        11.2338457,
        9.81092453E-05,
        0.0117562935
      ],
      "scale": [
        0.999999344,
        1.0,
        0.999999344
      ],
      "rotation": [
        0.0,
        0.345862269,
        0.0,
        0.9382853
      ],
      "children": [
        15
      ]
    },
    {
      "name": "Bip01_Tail_1Nub",
      "translation": [
        19.3249016,
        0.0,
        -1.5E-05
      ],
      "scale": [
        1.00000036,
        1.0,
        1.00000036
      ],
      "rotation": [
        0.707388163,
        1.06023788E-06,
        -0.706825256,
        -1.06023833E-06
      ]
    },
    {
      "name": "Dummy_baobao_toubu",
      "translation": [
        16.4067612,
        1.824165,
        -8.507416
      ],
      "scale": [
        1.359711,
        0.269140959,
        2.08656383
      ],
      "rotation": [
        0.522081435,
        0.522081435,
        0.47689724,
        0.47689724
      ]
    },
    {
      "name": "Bip01_L_Clavicle",
      "translation": [
        -0.6772652,
        23.49814,
        -0.8581934
      ],
      "scale": [
        1.0,
        1.00000012,
        1.00000012
      ],
      "rotation": [
        0.6891013,
        0.6891019,
        0.158553228,
        0.1585525
      ],
      "children": [
        18
      ]
    },
    {
      "name": "Bip01_L_UpperArm",
      "translation": [
        10.3482876,
        -6.50082E-06,
        -2.78621465E-05
      ],
      "scale": [
        1.00000012,
        0.9999999,
        0.99999994
      ],
      "rotation": [
        -0.112552807,
        0.173580363,
        -0.411155552,
        0.8877797
      ],
      "children": [
        19
      ]
    },
    {
      "name": "Bip01_L_Forearm",
      "translation": [
        43.3193626,
        -1.82202984E-05,
        -4.31721764E-06
      ],
      "scale": [
        1.00000048,
        1.0,
        0.999999464
      ],
      "rotation": [
        4.73627573E-08,
        -0.646206439,
        -1.98489886E-07,
        0.7631627
      ],
      "children": [
        20
      ]
    },
    {
      "name": "Bip01_L_Hand",
      "translation": [
        35.58451,
        -8E-06,
        1E-05
      ],
      "scale": [
        1.00000048,
        1.00000048,
        1.0
      ],
      "rotation": [
        -0.706818342,
        0.00308378763,
        -0.0277713556,
        0.7068431
      ],
      "children": [
        21,
        24
      ]
    },
    {
      "name": "Bip01_L_Finger0",
      "translation": [
        9.950294,
        5E-06,
        8E-06
      ],
      "scale": [
        1.0,
        1.00000036,
        1.00000036
      ],
      "rotation": [
        -0.000397999916,
        0.0,
        0.0,
        0.9999999
      ],
      "children": [
        22
      ]
    },
    {
      "name": "Bip01_L_Finger01",
      "translation": [
        6.790447,
        3E-06,
        0.0
      ],
      "children": [
        23
      ]
    },
    {
      "name": "Bip01_L_Finger0Nub",
      "translation": [
        7.638767,
        -1.1E-05,
        0.0
      ]
    },
    {
      "name": "Dummy_baobao_zuoshou",
      "translation": [
        13.8297081,
        -0.829275,
        -1.260468
      ],
      "scale": [
        0.696682,
        0.696682036,
        0.6966827
      ],
      "rotation": [
        0.08205511,
        0.07075325,
        0.396687031,
        0.911537349
      ]
    },
    {
      "name": "Bip01_R_Clavicle",
      "translation": [
        -0.677213,
        -23.4975986,
        -0.85823524
      ],
      "scale": [
        1.0,
        1.00000012,
        1.00000012
      ],
      "rotation": [
        0.6891019,
        -0.6891013,
        0.1585525,
        -0.158553228
      ],
      "children": [
        26
      ]
    },
    {
      "name": "Bip01_R_UpperArm",
      "translation": [
        10.3482857,
        2.32461989E-05,
        -1.75030946E-05
      ],
      "scale": [
        1.0000006,
        0.99999994,
        1.00000036
      ],
      "rotation": [
        0.112552829,
        0.173580363,
        0.411155581,
        0.8877797
      ],
      "children": [
        27
      ]
    },
    {
      "name": "Bip01_R_Forearm",
      "translation": [
        43.31933,
        -1.2265752E-05,
        -1.25209126E-05
      ],
      "scale": [
        0.99999994,
        1.0,
        0.9999994
      ],
      "rotation": [
        6.473972E-08,
        -0.6462065,
        6.81255443E-08,
        0.7631626
      ],
      "children": [
        28
      ]
    },
    {
      "name": "Bip01_R_Hand",
      "translation": [
        35.5845032,
        1.5E-05,
        -4E-06
      ],
      "scale": [
        1.00000048,
        1.00000048,
        0.9999999
      ],
      "rotation": [
        0.7068187,
        0.00307423924,
        0.02776216,
        0.7068431
      ],
      "children": [
        29,
        32
      ]
    },
    {
      "name": "Bip01_R_Finger0",
      "translation": [
        9.950294,
        8E-06,
        0.0
      ],
      "scale": [
        1.0,
        1.00000036,
        1.00000036
      ],
      "rotation": [
        0.000397999916,
        0.0,
        0.0,
        0.9999999
      ],
      "children": [
        30
      ]
    },
    {
      "name": "Bip01_R_Finger01",
      "translation": [
        6.790432,
        4E-06,
        8E-06
      ],
      "children": [
        31
      ]
    },
    {
      "name": "Bip01_R_Finger0Nub",
      "translation": [
        7.63876,
        -4E-06,
        -1.5E-05
      ],
      "scale": [
        -1.0,
        1.0,
        1.0
      ],
      "rotation": [
        0.0,
        0.0,
        1.0,
        0.0
      ]
    },
    {
      "name": "Dummy_baobao_youshou",
      "translation": [
        13.4294319,
        1.264816,
        -1.222801
      ],
      "scale": [
        0.6966821,
        0.696682036,
        0.696682036
      ],
      "rotation": [
        0.07075488,
        0.08205474,
        0.9115373,
        0.396687
      ]
    },
    {
      "name": "Bip01_L_Thigh",
      "translation": [
        -11.9788294,
        14.4189491,
        -12.8971195
      ],
      "scale": [
        1.00000024,
        1.00000036,
        1.00000036
      ],
      "rotation": [
        -0.549479961,
        -0.3378974,
        0.756476,
        0.107894741
      ],
      "children": [
        34
      ]
    },
    {
      "name": "Bip01_L_Calf",
      "translation": [
        44.2892723,
        4.198599E-05,
        8.219104E-06
      ],
      "scale": [
        0.9999998,
        0.999999464,
        0.999999642
      ],
      "rotation": [
        -1.64032144E-07,
        0.895259738,
        1.26050281E-07,
        -0.445544571
      ],
      "children": [
        35
      ]
    },
    {
      "name": "Bip01_L_HorseLink",
      "translation": [
        33.0721855,
        -2.18700961E-06,
        -1.23881555E-05
      ],
      "scale": [
        1.0,
        1.0,
        0.999999642
      ],
      "rotation": [
        1.0778197E-08,
        0.803842247,
        -1.53602244E-07,
        0.594842553
      ],
      "children": [
        36
      ]
    },
    {
      "name": "Bip01_L_Foot",
      "translation": [
        16.8125458,
        -8.324788E-06,
        -5.508295E-06
      ],
      "scale": [
        0.999999642,
        0.99999994,
        1.00000024
      ],
      "rotation": [
        0.0218626447,
        -0.2539762,
        0.0371735729,
        0.9662485
      ],
      "children": [
        37,
        39
      ]
    },
    {
      "name": "Bip01_L_Toe0",
      "translation": [
        10.5874338,
        0.0,
        -30.3120232
      ],
      "scale": [
        0.9999995,
        1.0,
        1.00000024
      ],
      "rotation": [
        0.0,
        0.9345871,
        0.0,
        0.355734378
      ],
      "children": [
        38
      ]
    },
    {
      "name": "Bip01_L_Toe0Nub",
      "translation": [
        5.917944,
        -1.1E-05,
        0.0
      ],
      "scale": [
        -1.0,
        1.0,
        1.0
      ],
      "rotation": [
        0.0,
        0.0,
        1.0,
        0.0
      ]
    },
    {
      "name": "Dummy_baobao_zuotui",
      "translation": [
        6.238351,
        -0.332615,
        -7.63032
      ],
      "scale": [
        1.00000072,
        0.4797137,
        -1.700688
      ],
      "rotation": [
        0.00302255177,
        0.0141071249,
        0.7143902,
        0.6995988
      ]
    },
    {
      "name": "Bip01_R_Thigh",
      "translation": [
        -11.9788284,
        -14.4186869,
        -12.8971663
      ],
      "scale": [
        1.0,
        1.00000012,
        1.00000012
      ],
      "rotation": [
        -0.5494803,
        0.33789593,
        0.7564763,
        -0.107894771
      ],
      "children": [
        41
      ]
    },
    {
      "name": "Bip01_R_Calf",
      "translation": [
        44.2892876,
        1.567944E-05,
        7.3721103E-06
      ],
      "scale": [
        0.999999762,
        1.0,
        1.0
      ],
      "rotation": [
        -4.237164E-08,
        0.8952598,
        2.512654E-07,
        -0.445544451
      ],
      "children": [
        42
      ]
    },
    {
      "name": "Bip01_R_HorseLink",
      "translation": [
        33.0721931,
        -1.65407382E-05,
        -4.92154368E-06
      ],
      "rotation": [
        -1.40045017E-07,
        0.8038423,
        3.35066829E-07,
        0.5948425
      ],
      "children": [
        43
      ]
    },
    {
      "name": "Bip01_R_Foot",
      "translation": [
        16.81255,
        -9.252018E-06,
        -1.74137142E-07
      ],
      "scale": [
        1.00000036,
        0.99999994,
        1.0000006
      ],
      "rotation": [
        -0.021863373,
        -0.253976315,
        -0.03717375,
        0.9662485
      ],
      "children": [
        44,
        46
      ]
    },
    {
      "name": "Bip01_R_Toe0",
      "translation": [
        10.5874329,
        4E-06,
        -30.3120232
      ],
      "scale": [
        0.9999995,
        1.0,
        0.9999995
      ],
      "rotation": [
        0.0,
        0.9345872,
        0.0,
        0.3557342
      ],
      "children": [
        45
      ]
    },
    {
      "name": "Bip01_R_Toe0Nub",
      "translation": [
        5.917946,
        -1.1E-05,
        2E-06
      ]
    },
    {
      "name": "Dummy_baobao_youtui",
      "translation": [
        6.236561,
        -0.702885,
        -6.823744
      ],
      "scale": [
        0.9999997,
        0.479713619,
        1.70068777
      ],
      "rotation": [
        -0.6995988,
        0.7143903,
        0.0141052036,
        -0.00301868934
      ]
    },
    {
      "name": "Bip01_Tail",
      "translation": [
        -18.7582684,
        0.00033390522,
        6.16703
      ],
      "scale": [
        1.00000036,
        1.0,
        1.00000036
      ],
      "rotation": [
        -1.50498192E-21,
        0.9070289,
        1.40592886E-21,
        -0.421068281
      ],
      "children": [
        48
      ]
    },
    {
      "name": "Bip01_Tail1",
      "translation": [
        22.0088825,
        3.0875206E-05,
        0.0140387248
      ],
      "scale": [
        0.9999994,
        1.0,
        0.9999994
      ],
      "rotation": [
        4.72763E-29,
        -0.2027474,
        4.24371178E-30,
        0.97923106
      ],
      "children": [
        49
      ]
    },
    {
      "name": "Bip01_Tail2",
      "translation": [
        19.1817951,
        -8.970499E-05,
        0.00897655
      ],
      "scale": [
        0.99999994,
        1.0,
        0.99999994
      ],
      "rotation": [
        -8.612976E-37,
        0.3190799,
        -5.28127329E-37,
        0.947727859
      ],
      "children": [
        50
      ]
    },
    {
      "name": "Bip01_TailNub",
      "translation": [
        14.1130161,
        0.0,
        -1.1E-05
      ],
      "scale": [
        1.00000036,
        1.0,
        1.00000036
      ],
      "rotation": [
        0.707388163,
        1.06023788E-06,
        -0.706825256,
        -1.06023833E-06
      ]
    },
    {
      "name": "Dummy_baobao_weiba",
      "translation": [
        7.359421,
        -0.766213,
        23.6120586
      ],
      "scale": [
        1.0,
        0.999999642,
        0.999999642
      ],
      "rotation": [
        0.706991553,
        0.7069916,
        0.0127639472,
        0.0127639472
      ]
    }
  ]
}