{
  "asset": {
    "version": "2.0"
  },
  "scene": 0,
  "buffers": [
    {
      "byteLength": 239112,
      "uri": "hunter.bin"
    }
  ],
  "bufferViews": [
    {
      "buffer": 0,
      "byteOffset": 0,
      "byteLength": 8856,
      "target": 34963
    },
    {
      "buffer": 0,
      "byteOffset": 8856,
      "byteLength": 230256,
      "byteStride": 52,
      "target": 34962
    }
  ],
  "accessors": [
    {
      "bufferView": 0,
      "byteOffset": 0,
      "componentType": 5123,
      "type": "SCALAR",
      "count": 4428
    },
    {
      "bufferView": 1,
      "byteOffset": 0,
      "componentType": 5126,
      "type": "VEC3",
      "count": 4428,
      "min": [
        -66.29116,
        -0.211540163,
        -32.21049
      ],
      "max": [
        66.29116,
        131.458633,
        23.1688862
      ]
    },
    {
      "bufferView": 1,
      "byteOffset": 12,
      "componentType": 5126,
      "type": "VEC3",
      "count": 4428
    },
    {
      "bufferView": 1,
      "byteOffset": 24,
      "componentType": 5126,
      "type": "VEC2",
      "count": 4428
    },
    {
      "bufferView": 1,
      "byteOffset": 32,
      "componentType": 5121,
      "type": "VEC4",
      "count": 4428
    },
    {
      "bufferView": 1,
      "byteOffset": 36,
      "componentType": 5126,
      "type": "VEC4",
      "count": 4428
    }
  ],
  "meshes": [
    {
      "primitives": [
        {
          "attributes": {
            "POSITION": 1,
            "NORMAL": 2,
            "TEXCOORD_0": 3,
            "JOINTS_0": 4,
            "WEIGHTS_0": 5
          },
          "indices": 0,
          "material": 0,
          "mode": 4
        }
      ]
    }
  ],
  "images": [
    {
      "uri": "hunter.png"
    }
  ],
  "textures": [
    {
      "source": 0
    }
  ],
  "materials": [
    {
      "doubleSided": true,
      "pbrMetallicRoughness": {
        "baseColorTexture": {
          "index": 0
        }
      }
    }
  ],
  "scenes": [
    {
      "nodes": [
        0
      ]
    }
  ],
  "nodes": [
    {
      "children": [
        1,
        3
      ]
    },
    {
      "name": "bingying",
      "children": [
        2
      ]
    },
    {
      "mesh": 0
    },
    {
      "name": "Bip01",
      "translation": [
        0.0,
        51.58337,
        -0.126115
      ],
      "scale": [
        1.0,
        1.00000036,
        0.999999762
      ],
      "rotation": [
        -0.1138557,
        0.6991,
        -0.113468572,
        0.696721554
      ],
      "children": [
        4,
        5
      ]
    },
    {
      "name": "Bip01_____",
      "translation": [
        16.096386,
        -48.1070175,
        0.0
      ],
      "scale": [
        0.999999762,
        0.9999995,
        0.99999994
      ],
      "rotation": [
        0.113855705,
        -0.6990997,
        0.11346858,
        0.696721852
      ]
    },
    {
      "name": "Bip01_Pelvis",
      "translation": [
        -8.14971352,
        7.06715,
        0.2651153
      ],
      "scale": [
        0.9999995,
        1.00000024,
        1.0
      ],
      "rotation": [
        0.412422121,
        0.572890759,
        0.574846566,
        0.413830221
      ],
      "children": [
        6
      ]
    },
    {
      "name": "Bip01_Spine",
      "translation": [
        6.41477966,
        2.30054757E-05,
        -1.04337144
      ],
      "scale": [
        1.0,
        1.0,
        1.00000012
      ],
      "rotation": [
        8.44865358E-11,
        -5.275809E-09,
        -3.995827E-12,
        1.0
      ],
      "children": [
        7,
        26,
        31
      ]
    },
    {
      "name": "Bip01_Spine1",
      "translation": [
        14.5029755,
        -2.98023224E-08,
        0.0012011528
      ],
      "rotation": [
        9.295109E-19,
        -8.6643556E-17,
        -4.75658372E-19,
        1.0
      ],
      "children": [
        8
      ]
    },
    {
      "name": "Bip01_Neck",
      "translation": [
        16.01149,
        -2.98023224E-06,
        2.24855423
      ],
      "rotation": [
        0.0,
        0.0,
        -4.979441E-34,
        1.0
      ],
      "children": [
        9,
        12,
        19
      ]
    },
    {
      "name": "Bip01_Neck1",
      "translation": [
        4.185425,
        0.000101059675,
        8.29696655E-05
      ],
      "scale": [
        1.0,
        1.0,
        1.00000012
      ],
      "rotation": [
        0.0,
        0.2488299,
        0.0,
        0.9685472
      ],
      "children": [
        10
      ]
    },
    {
      "name": "Bip01_Head",
      "translation": [
        4.892687,
        -5.698204E-05,
        1.72325645E-06
      ],
      "scale": [
        1.0,
        1.0,
        1.00000012
      ],
      "rotation": [
        0.0,
        -0.165981561,
        0.0,
        0.986128867
      ],
      "children": [
        11
      ]
    },
    {
      "name": "Bip01_HeadNub",
      "translation": [
        14.1782532,
        0.0,
        4E-06
      ]
    },
    {
      "name": "Bip01_L_Clavicle",
      "translation": [
        -5.25708,
        11.1600132,
        -0.776939869
      ],
      "scale": [
        1.00000024,
        0.999999762,
        1.0
      ],
      "rotation": [
        0.792586267,
        0.6097598,
        3.75192684E-07,
        -5.94649464E-07
      ],
      "children": [
        13
      ]
    },
    {
      "name": "Bip01_L_UpperArm",
      "translation": [
        7.251465,
        -3.815933E-06,
        -8.087176E-06
      ],
      "scale": [
        0.999999762,
        1.00000024,
        0.999999762
      ],
      "rotation": [
        0.0498916246,
        -0.00295705232,
        -0.198501527,
        0.97882545
      ],
      "children": [
        14
      ]
    },
    {
      "name": "Bip01_L_Forearm",
      "translation": [
        22.901825,
        -1.59742672E-06,
        -6.60151454E-06
      ],
      "scale": [
        1.0,
        1.0,
        1.00000012
      ],
      "rotation": [
        1.40819765E-08,
        -0.0313704647,
        1.50834012E-08,
        0.999507844
      ],
      "children": [
        15
      ]
    },
    {
      "name": "Bip01_L_Hand",
      "translation": [
        18.3726387,
        1.21404792E-05,
        -1.90179242E-06
      ],
      "scale": [
        1.00000012,
        1.00000012,
        0.9999998
      ],
      "rotation": [
        -0.7035184,
        -0.06829099,
        0.0683452561,
        0.7040789
      ],
      "children": [
        16,
        18
      ]
    },
    {
      "name": "Bip01_L_Finger0",
      "translation": [
        6.972572,
        -4E-06,
        0.0
      ],
      "scale": [
        1.00000036,
        1.0000006,
        1.00000036
      ],
      "rotation": [
        -0.000396683,
        -3.38723657E-05,
        -0.08492729,
        0.996387064
      ],
      "children": [
        17
      ]
    },
    {
      "name": "Bip01_L_Finger0Nub",
      "translation": [
        1.743145,
        4E-06,
        0.0
      ]
    },
    {
      "name": "weapon02_yuancheng",
      "translation": [
        4.032162,
        0.660448,
        -0.160851
      ],
      "scale": [
        1.539915,
        1.53991377,
        1.539914
      ],
      "rotation": [
        -0.5731289,
        0.662595451,
        0.47524184,
        -0.0814597
      ]
    },
    {
      "name": "Bip01_R_Clavicle",
      "translation": [
        -5.2571106,
        -11.1600323,
        -0.7769723
      ],
      "scale": [
        0.9999999,
        1.00000024,
        1.0
      ],
      "rotation": [
        0.792586267,
        -0.6097598,
        -4.61917125E-07,
        -5.71645444E-07
      ],
      "children": [
        20
      ]
    },
    {
      "name": "Bip01_R_UpperArm",
      "translation": [
        7.251497,
        -5.945769E-06,
        -8.748476E-06
      ],
      "scale": [
        1.00000036,
        1.00000012,
        1.00000036
      ],
      "rotation": [
        -0.049891673,
        -0.00295695383,
        0.198501483,
        0.97882545
      ],
      "children": [
        21
      ]
    },
    {
      "name": "Bip01_R_Forearm",
      "translation": [
        22.9017982,
        -2.88715626E-07,
        -9.665479E-06
      ],
      "scale": [
        0.9999998,
        0.9999997,
        0.9999996
      ],
      "rotation": [
        3.52495966E-09,
        -0.0313704833,
        2.35444979E-08,
        0.999507844
      ],
      "children": [
        22
      ]
    },
    {
      "name": "Bip01_R_Hand",
      "translation": [
        18.3726234,
        -8.269748E-06,
        2.94078272E-05
      ],
      "scale": [
        0.9999999,
        1.00000012,
        0.999999762
      ],
      "rotation": [
        0.7035184,
        -0.06829099,
        -0.0683453,
        0.7040789
      ],
      "children": [
        23,
        25
      ]
    },
    {
      "name": "Bip01_R_Finger0",
      "translation": [
        6.972572,
        6E-06,
        0.0
      ],
      "scale": [
        1.00000036,
        0.999999642,
        1.00000036
      ],
      "rotation": [
        0.0003966832,
        -3.38723657E-05,
        0.0849273354,
        0.996387064
      ],
      "children": [
        24
      ]
    },
    {
      "name": "Bip01_R_Finger0Nub",
      "translation": [
        1.743143,
        -8E-06,
        -8E-06
      ],
      "scale": [
        -1.0,
        1.0,
        1.0
      ],
      "rotation": [
        0.0,
        0.0,
        1.0,
        0.0
      ]
    },
    {
      "name": "Weapon",
      "translation": [
        3.629139,
        -0.392002,
        -0.568985
      ],
      "scale": [
        1.53991377,
        1.5399133,
        1.53991461
      ],
      "rotation": [
        0.670893669,
        -0.5637711,
        -0.08912299,
        0.473414034
      ]
    },
    {
      "name": "Bip01_L_Thigh",
      "translation": [
        -6.414749,
        5.578037,
        1.04339886
      ],
      "scale": [
        0.999999762,
        0.9999998,
        0.9999997
      ],
      "rotation": [
        -0.06082216,
        -0.000376498356,
        0.9929352,
        0.101883605
      ],
      "children": [
        27
      ]
    },
    {
      "name": "Bip01_L_Calf",
      "translation": [
        32.1371155,
        -1.18420658E-05,
        -2.55238251E-06
      ],
      "scale": [
        1.00000024,
        1.00000024,
        1.00000036
      ],
      "rotation": [
        -2.60329518E-08,
        -0.195206657,
        -8.894917E-09,
        0.9807621
      ],
      "children": [
        28
      ]
    },
    {
      "name": "Bip01_L_Foot",
      "translation": [
        24.9098072,
        -3.431636E-05,
        -2.83273512E-05
      ],
      "scale": [
        1.00000012,
        0.999999762,
        0.9999998
      ],
      "rotation": [
        -0.102316119,
        0.116494104,
        0.06614271,
        0.9856905
      ],
      "children": [
        29
      ]
    },
    {
      "name": "Bip01_L_Toe0",
      "translation": [
        6.414774,
        -2E-06,
        -8.255531
      ],
      "rotation": [
        0.0,
        0.707106769,
        0.0,
        0.707106769
      ],
      "children": [
        30
      ]
    },
    {
      "name": "Bip01_L_Toe0Nub",
      "translation": [
        1.965433,
        -4E-06,
        0.0
      ],
      "scale": [
        -1.0,
        1.0,
        1.0
      ],
      "rotation": [
        0.0,
        0.0,
        1.0,
        0.0
      ]
    },
    {
      "name": "Bip01_R_Thigh",
      "translation": [
        -6.41476059,
        -5.57807541,
        1.04337645
      ],
      "scale": [
        1.0,
        1.0,
        0.99999994
      ],
      "rotation": [
        -0.0608223043,
        0.000375068921,
        0.9929352,
        -0.101883717
      ],
      "children": [
        32
      ]
    },
    {
      "name": "Bip01_R_Calf",
      "translation": [
        32.137085,
        -6.56017073E-06,
        5.522314E-06
      ],
      "scale": [
        0.99999994,
        1.0,
        1.00000012
      ],
      "rotation": [
        3.114853E-08,
        -0.195206657,
        -2.42375364E-09,
        0.9807621
      ],
      "children": [
        33
      ]
    },
    {
      "name": "Bip01_R_Foot",
      "translation": [
        24.9097652,
        -1.94726526E-05,
        -3.03112411E-05
      ],
      "scale": [
        1.00000012,
        1.00000024,
        1.00000036
      ],
      "rotation": [
        0.1023161,
        0.116494104,
        -0.06614289,
        0.9856905
      ],
      "children": [
        34
      ]
    },
    {
      "name": "Bip01_R_Toe0",
      "translation": [
        6.414774,
        0.0,
        -8.255533
      ],
      "scale": [
        1.00000036,
        1.0,
        1.00000036
      ],
      "rotation": [
        0.0,
        0.7132502,
        0.0,
        0.700909436
      ],
      "children": [
        35
      ]
    },
    {
      "name": "Bip01_R_Toe0Nub",
      "translation": [
        1.965431,
        0.0,
        0.0
      ]
    }
  ]
}