{
  "asset": {
    "version": "2.0"
  },
  "scene": 0,
  "buffers": [
    {
      "byteLength": 292572,
      "uri": "militia.bin"
    }
  ],
  "bufferViews": [
    {
      "buffer": 0,
      "byteOffset": 0,
      "byteLength": 281736,
      "byteStride": 52,
      "target": 34962
    },
    {
      "buffer": 0,
      "byteOffset": 281736,
      "byteLength": 10836,
      "target": 34963
    }
  ],
  "accessors": [
    {
      "bufferView": 0,
      "byteOffset": 0,
      "componentType": 5126,
      "type": "VEC3",
      "count": 5418,
      "min": [
        -72.3934,
        -0.211526752,
        -35.5117722
      ],
      "max": [
        72.39339,
        134.236557,
        26.2909317
      ]
    },
    {
      "bufferView": 0,
      "byteOffset": 12,
      "componentType": 5126,
      "type": "VEC3",
      "count": 5418
    },
    {
      "bufferView": 0,
      "byteOffset": 24,
      "componentType": 5126,
      "type": "VEC2",
      "count": 5418
    },
    {
      "bufferView": 1,
      "byteOffset": 0,
      "componentType": 5123,
      "type": "SCALAR",
      "count": 5418
    }
  ],
  "meshes": [
    {
      "primitives": [
        {
          "attributes": {
            "POSITION": 0,
            "NORMAL": 1,
            "TEXCOORD_0": 2
          },
          "indices": 3,
          "material": 0,
          "mode": 4
        }
      ]
    }
  ],
  "images": [
    {
      "uri": "militia.png"
    }
  ],
  "textures": [
    {
      "source": 0
    }
  ],
  "materials": [
    {
      "doubleSided": true,
      "pbrMetallicRoughness": {
        "baseColorTexture": {
          "index": 0
        }
      }
    }
  ],
  "scenes": [
    {
      "nodes": [
        0
      ]
    }
  ],
  "nodes": [
    {
      "children": [
        1,
        3
      ]
    },
    {
      "name": "bingying",
      "children": [
        2
      ]
    },
    {
      "mesh": 0
    },
    {
      "name": "Bip01",
      "translation": [
        0.0,
        55.5876465,
        0.0
      ],
      "scale": [
        1.00000048,
        1.00000048,
        1.0
      ],
      "rotation": [
        -0.113662347,
        0.6979125,
        -0.113662347,
        0.6979111
      ],
      "children": [
        4,
        5
      ]
    },
    {
      "name": "Bip01_____",
      "translation": [
        17.3613758,
        -51.88768,
        2E-06
      ],
      "scale": [
        1.0,
        1.00000048,
        1.00000048
      ],
      "rotation": [
        0.113662347,
        -0.6979125,
        0.11366199,
        0.6979111
      ]
    },
    {
      "name": "Bip01_Pelvis",
      "translation": [
        -7.25157452,
        1.665834,
        0.0192024875
      ],
      "scale": [
        0.9999995,
        1.0,
        0.9999995
      ],
      "rotation": [
        0.413126171,
        0.57386893,
        0.573870063,
        0.413127273
      ],
      "children": [
        6
      ]
    },
    {
      "name": "Bip01_Spine",
      "translation": [
        6.478344,
        2.59839017E-05,
        0.0077729933
      ],
      "rotation": [
        2.18440327E-14,
        -5.354137E-10,
        9.645622E-15,
        1.0
      ],
      "children": [
        7,
        26,
        33
      ]
    },
    {
      "name": "Bip01_Spine1",
      "translation": [
        9.764435,
        0.0,
        0.0
      ],
      "rotation": [
        1.11715247E-24,
        0.0,
        1.73969767E-23,
        1.0
      ],
      "children": [
        8
      ]
    },
    {
      "name": "Bip01_Spine2",
      "translation": [
        9.764458,
        0.0,
        -1.43051147E-06
      ],
      "children": [
        9
      ]
    },
    {
      "name": "Bip01_Neck",
      "translation": [
        10.5647354,
        7.601082E-05,
        2.39941835
      ],
      "scale": [
        0.99999994,
        1.0,
        0.99999994
      ],
      "rotation": [
        0.0,
        0.165786445,
        0.0,
        0.9861617
      ],
      "children": [
        10,
        12,
        19
      ]
    },
    {
      "name": "Bip01_Head",
      "translation": [
        10.9624014,
        -6.501004E-05,
        2.75727871E-06
      ],
      "scale": [
        0.999999762,
        1.0,
        0.999999762
      ],
      "rotation": [
        0.0,
        -0.130786747,
        0.0,
        0.991410553
      ],
      "children": [
        11
      ]
    },
    {
      "name": "Bip01_HeadNub",
      "translation": [
        13.2383347,
        0.0,
        0.0
      ]
    },
    {
      "name": "Bip01_L_Clavicle",
      "translation": [
        -1.64251,
        11.8819075,
        -1.65405262
      ],
      "rotation": [
        0.697321534,
        0.6973217,
        0.117229216,
        0.117228225
      ],
      "children": [
        13
      ]
    },
    {
      "name": "Bip01_L_UpperArm",
      "translation": [
        7.32333326,
        7.586308E-06,
        -3.31376032E-06
      ],
      "scale": [
        0.9999998,
        1.0,
        0.9999999
      ],
      "rotation": [
        0.0499668419,
        -0.00485307351,
        -0.0382333957,
        0.998007
      ],
      "children": [
        14
      ]
    },
    {
      "name": "Bip01_L_Forearm",
      "translation": [
        23.9345551,
        2.77854324E-05,
        -6.72176429E-06
      ],
      "scale": [
        1.00000012,
        0.99999994,
        1.0
      ],
      "rotation": [
        1.72901711E-08,
        0.008544784,
        1.55860835E-08,
        0.9999635
      ],
      "children": [
        15
      ]
    },
    {
      "name": "Bip01_L_Hand",
      "translation": [
        19.5489388,
        -3.183664E-05,
        1.6525446E-05
      ],
      "scale": [
        1.0,
        0.99999994,
        1.00000012
      ],
      "rotation": [
        -0.706825137,
        -7.08797145E-08,
        -1.70892083E-08,
        0.7073883
      ],
      "children": [
        16,
        18
      ]
    },
    {
      "name": "Bip01_L_Finger0",
      "translation": [
        7.04167,
        2E-06,
        0.0
      ],
      "scale": [
        1.00000024,
        0.99999994,
        1.00000024
      ],
      "rotation": [
        0.0171401873,
        -0.1446231,
        -0.119036667,
        0.982151031
      ],
      "children": [
        17
      ]
    },
    {
      "name": "Bip01_L_Finger0Nub",
      "translation": [
        2.61337,
        0.0,
        0.0
      ]
    },
    {
      "name": "Shield",
      "translation": [
        6.709431,
        -0.885836,
        0.42923
      ],
      "scale": [
        1.00000048,
        0.9999998,
        0.9999998
      ],
      "rotation": [
        0.7423345,
        -0.388845831,
        -0.531266868,
        0.124474235
      ]
    },
    {
      "name": "Bip01_R_Clavicle",
      "translation": [
        -1.642499,
        -11.8820791,
        -1.65408468
      ],
      "rotation": [
        0.6973217,
        -0.697321534,
        0.117228225,
        -0.117229216
      ],
      "children": [
        20
      ]
    },
    {
      "name": "Bip01_R_UpperArm",
      "translation": [
        7.32333231,
        4.308663E-08,
        -4.0615837E-06
      ],
      "scale": [
        0.9999998,
        1.0,
        0.999999642
      ],
      "rotation": [
        -0.0499668568,
        -0.00485308142,
        0.0382333919,
        0.998007
      ],
      "children": [
        21
      ]
    },
    {
      "name": "Bip01_R_Forearm",
      "translation": [
        23.9345341,
        -2.664112E-05,
        -5.062951E-06
      ],
      "scale": [
        1.00000024,
        0.9999999,
        1.00000024
      ],
      "rotation": [
        -1.65723577E-08,
        0.008544847,
        6.935484E-08,
        0.9999635
      ],
      "children": [
        22
      ]
    },
    {
      "name": "Bip01_R_Hand",
      "translation": [
        19.5489464,
        5.159711E-05,
        -6.48407558E-06
      ],
      "scale": [
        1.0,
        1.00000012,
        1.00000036
      ],
      "rotation": [
        0.706825137,
        -7.73159456E-08,
        1.96329459E-08,
        0.7073883
      ],
      "children": [
        23,
        25
      ]
    },
    {
      "name": "Bip01_R_Finger0",
      "translation": [
        7.04167,
        -4E-06,
        0.0
      ],
      "scale": [
        1.00000024,
        0.99999994,
        1.00000024
      ],
      "rotation": [
        -0.0171401873,
        -0.1446231,
        0.119036667,
        0.982151031
      ],
      "children": [
        24
      ]
    },
    {
      "name": "Bip01_R_Finger0Nub",
      "translation": [
        2.613372,
        -4E-06,
        0.0
      ],
      "scale": [
        -1.0,
        1.0,
        1.0
      ],
      "rotation": [
        0.0,
        0.0,
        1.0,
        0.0
      ]
    },
    {
      "name": "Weapon",
      "translation": [
        4.783789,
        0.736536,
        -1.797775
      ],
      "scale": [
        0.9999994,
        1.00000012,
        0.9999999
      ],
      "rotation": [
        0.3928125,
        -0.7411586,
        -0.113753065,
        0.532393336
      ]
    },
    {
      "name": "Bip01_L_Thigh",
      "translation": [
        -6.478382,
        5.633322,
        -0.00775671
      ],
      "scale": [
        1.0,
        0.9999999,
        1.0
      ],
      "rotation": [
        -0.07006442,
        -0.00312788365,
        0.9912177,
        0.112110183
      ],
      "children": [
        27
      ]
    },
    {
      "name": "Bip01_L_Calf",
      "translation": [
        30.1573715,
        -6.01341162E-06,
        3.1694276E-06
      ],
      "scale": [
        1.0,
        1.00000036,
        0.99999994
      ],
      "rotation": [
        8.55034443E-08,
        -0.209321916,
        6.251525E-09,
        0.9778468
      ],
      "children": [
        28
      ]
    },
    {
      "name": "Bip01_L_Foot",
      "translation": [
        25.93303,
        -6.12098248E-08,
        -1.7963408E-05
      ],
      "scale": [
        0.99999994,
        0.9999998,
        1.00000012
      ],
      "rotation": [
        -0.121031515,
        0.121096909,
        0.128543511,
        0.9768129
      ],
      "children": [
        29
      ]
    },
    {
      "name": "Bip01_L_Toe0",
      "translation": [
        6.478334,
        -2E-06,
        -10.6728306
      ],
      "scale": [
        1.00000012,
        1.00000036,
        1.00000036
      ],
      "rotation": [
        -0.104726888,
        0.7055199,
        -0.102914959,
        0.693312645
      ],
      "children": [
        30
      ]
    },
    {
      "name": "Bip01_L_Toe01",
      "translation": [
        0.844999,
        3E-06,
        0.0
      ],
      "children": [
        31
      ]
    },
    {
      "name": "Bip01_L_Toe02",
      "translation": [
        0.845001,
        -1E-06,
        0.0
      ],
      "children": [
        32
      ]
    },
    {
      "name": "Bip01_L_Toe0Nub",
      "translation": [
        0.845002,
        0.0,
        0.0
      ],
      "scale": [
        -1.0,
        1.0,
        1.0
      ],
      "rotation": [
        0.0,
        0.0,
        1.0,
        0.0
      ]
    },
    {
      "name": "Bip01_R_Thigh",
      "translation": [
        -6.47834,
        -5.633367,
        -0.00777959824
      ],
      "scale": [
        0.9999997,
        0.9999996,
        0.99999994
      ],
      "rotation": [
        -0.07006455,
        0.00312637887,
        0.9912177,
        -0.11211028
      ],
      "children": [
        34
      ]
    },
    {
      "name": "Bip01_R_Calf",
      "translation": [
        30.157402,
        6.728053E-06,
        5.023849E-06
      ],
      "scale": [
        1.00000048,
        1.00000072,
        1.00000024
      ],
      "rotation": [
        -9.48350944E-08,
        -0.209321916,
        6.834082E-08,
        0.9778468
      ],
      "children": [
        35
      ]
    },
    {
      "name": "Bip01_R_Foot",
      "translation": [
        25.9329929,
        -4.68734543E-05,
        9.791918E-07
      ],
      "scale": [
        0.999999642,
        0.9999997,
        0.9999997
      ],
      "rotation": [
        0.121031657,
        0.121096887,
        -0.128543824,
        0.97681284
      ],
      "children": [
        36
      ]
    },
    {
      "name": "Bip01_R_Toe0",
      "translation": [
        6.478333,
        -2E-06,
        -10.6728306
      ],
      "scale": [
        1.00000012,
        1.00000036,
        1.00000036
      ],
      "rotation": [
        0.104726888,
        0.7055199,
        0.102914594,
        0.693312645
      ],
      "children": [
        37
      ]
    },
    {
      "name": "Bip01_R_Toe01",
      "translation": [
        0.844999,
        1E-06,
        0.0
      ],
      "children": [
        38
      ]
    },
    {
      "name": "Bip01_R_Toe02",
      "translation": [
        0.845,
        -3E-06,
        0.0
      ],
      "children": [
        39
      ]
    },
    {
      "name": "Bip01_R_Toe0Nub",
      "translation": [
        0.845001,
        0.0,
        0.0
      ]
    }
  ]
}