{
  "asset": {
    "version": "2.0"
  },
  "scene": 0,
  "buffers": [
    {
      "byteLength": 130340,
      "uri": "ruined.bin"
    }
  ],
  "bufferViews": [
    {
      "buffer": 0,
      "byteOffset": 0,
      "byteLength": 2280,
      "target": 34963
    },
    {
      "buffer": 0,
      "byteOffset": 2280,
      "byteLength": 36416,
      "byteStride": 32,
      "target": 34962
    },
    {
      "buffer": 0,
      "byteOffset": 38696,
      "byteLength": 3114,
      "target": 34963
    },
    {
      "buffer": 0,
      "byteOffset": 41812,
      "byteLength": 43776,
      "byteStride": 32,
      "target": 34962
    },
    {
      "buffer": 0,
      "byteOffset": 85588,
      "byteLength": 1164,
      "target": 34963
    },
    {
      "buffer": 0,
      "byteOffset": 86752,
      "byteLength": 15872,
      "byteStride": 32,
      "target": 34962
    },
    {
      "buffer": 0,
      "byteOffset": 102624,
      "byteLength": 192,
      "target": 34963
    },
    {
      "buffer": 0,
      "byteOffset": 102816,
      "byteLength": 2304,
      "byteStride": 32,
      "target": 34962
    },
    {
      "buffer": 0,
      "byteOffset": 105120,
      "byteLength": 2082,
      "target": 34963
    },
    {
      "buffer": 0,
      "byteOffset": 107204,
      "byteLength": 23136,
      "byteStride": 32,
      "target": 34962
    }
  ],
  "accessors": [
    {
      "bufferView": 0,
      "byteOffset": 0,
      "componentType": 5123,
      "type": "SCALAR",
      "count": 1140
    },
    {
      "bufferView": 1,
      "byteOffset": 0,
      "componentType": 5126,
      "type": "VEC3",
      "count": 1138,
      "min": [
        -2400.161,
        -365.093018,
        -650.113953
      ],
      "max": [
        1145.9574,
        3131.32861,
        143.208282
      ]
    },
    {
      "bufferView": 1,
      "byteOffset": 12,
      "componentType": 5126,
      "type": "VEC3",
      "count": 1138
    },
    {
      "bufferView": 1,
      "byteOffset": 24,
      "componentType": 5126,
      "type": "VEC2",
      "count": 1138
    },
    {
      "bufferView": 2,
      "byteOffset": 0,
      "componentType": 5123,
      "type": "SCALAR",
      "count": 1557
    },
    {
      "bufferView": 3,
      "byteOffset": 0,
      "componentType": 5126,
      "type": "VEC3",
      "count": 1368,
      "min": [
        -1317.06665,
        -1390.18066,
        -115.62455
      ],
      "max": [
        887.066956,
        813.9526,
        170.418808
      ]
    },
    {
      "bufferView": 3,
      "byteOffset": 12,
      "componentType": 5126,
      "type": "VEC3",
      "count": 1368
    },
    {
      "bufferView": 3,
      "byteOffset": 24,
      "componentType": 5126,
      "type": "VEC2",
      "count": 1368
    },
    {
      "bufferView": 4,
      "byteOffset": 0,
      "componentType": 5123,
      "type": "SCALAR",
      "count": 582
    },
    {
      "bufferView": 5,
      "byteOffset": 0,
      "componentType": 5126,
      "type": "VEC3",
      "count": 496,
      "min": [
        -26.94263,
        -29.2489052,
        -127.810143
      ],
      "max": [
        26.8512688,
        24.5449944,
        20.1951466
      ]
    },
    {
      "bufferView": 5,
      "byteOffset": 12,
      "componentType": 5126,
      "type": "VEC3",
      "count": 496
    },
    {
      "bufferView": 5,
      "byteOffset": 24,
      "componentType": 5126,
      "type": "VEC2",
      "count": 496
    },
    {
      "bufferView": 6,
      "byteOffset": 0,
      "componentType": 5123,
      "type": "SCALAR",
      "count": 96
    },
    {
      "bufferView": 7,
      "byteOffset": 0,
      "componentType": 5126,
      "type": "VEC3",
      "count": 72,
      "min": [
        -361.435059,
        -115.773552,
        0.0
      ],
      "max": [
        696.0451,
        1316.54822,
        164.316284
      ]
    },
    {
      "bufferView": 7,
      "byteOffset": 12,
      "componentType": 5126,
      "type": "VEC3",
      "count": 72
    },
    {
      "bufferView": 7,
      "byteOffset": 24,
      "componentType": 5126,
      "type": "VEC2",
      "count": 72
    },
    {
      "bufferView": 8,
      "byteOffset": 0,
      "componentType": 5123,
      "type": "SCALAR",
      "count": 1041
    },
    {
      "bufferView": 9,
      "byteOffset": 0,
      "componentType": 5126,
      "type": "VEC3",
      "count": 723,
      "min": [
        -709.3332,
        -886.897339,
        2.73304367
      ],
      "max": [
        460.8198,
        945.386963,
        414.240051
      ]
    },
    {
      "bufferView": 9,
      "byteOffset": 12,
      "componentType": 5126,
      "type": "VEC3",
      "count": 723
    },
    {
      "bufferView": 9,
      "byteOffset": 24,
      "componentType": 5126,
      "type": "VEC2",
      "count": 723
    }
  ],
  "meshes": [
    {
      "primitives": [
        {
          "attributes": {
            "POSITION": 1,
            "NORMAL": 2,
            "TEXCOORD_0": 3
          },
          "indices": 0,
          "material": 0,
          "mode": 4
        }
      ]
    },
    {
      "primitives": [
        {
          "attributes": {
            "POSITION": 5,
            "NORMAL": 6,
            "TEXCOORD_0": 7
          },
          "indices": 4,
          "material": 1,
          "mode": 4
        }
      ]
    },
    {
      "primitives": [
        {
          "attributes": {
            "POSITION": 9,
            "NORMAL": 10,
            "TEXCOORD_0": 11
          },
          "indices": 8,
          "material": 2,
          "mode": 4
        }
      ]
    },
    {
      "primitives": [
        {
          "attributes": {
            "POSITION": 13,
            "NORMAL": 14,
            "TEXCOORD_0": 15
          },
          "indices": 12,
          "material": 3,
          "mode": 4
        }
      ]
    },
    {
      "primitives": [
        {
          "attributes": {
            "POSITION": 17,
            "NORMAL": 18,
            "TEXCOORD_0": 19
          },
          "indices": 16,
          "material": 4,
          "mode": 4
        }
      ]
    }
  ],
  "images": [
    {
      "uri": "ruined.png"
    },
    {
      "uri": "ruined_1.png"
    },
    {
      "uri": "ruined_2.png"
    },
    {
      "uri": "ruined_3.png"
    },
    {
      "uri": "ruined_4.png"
    }
  ],
  "textures": [
    {
      "source": 0
    },
    {
      "source": 1
    },
    {
      "source": 2
    },
    {
      "source": 3
    },
    {
      "source": 4
    }
  ],
  "materials": [
    {
      "doubleSided": true,
      "pbrMetallicRoughness": {
        "baseColorTexture": {
          "index": 0
        },
        "baseColorFactor": [
          0.58799999952316284,
          0.58799999952316284,
          0.58799999952316284,
          1.0
        ]
      }
    },
    {
      "doubleSided": true,
      "pbrMetallicRoughness": {
        "baseColorTexture": {
          "index": 1
        },
        "baseColorFactor": [
          0.58799999952316284,
          0.58799999952316284,
          0.58799999952316284,
          1.0
        ]
      }
    },
    {
      "doubleSided": true,
      "pbrMetallicRoughness": {
        "baseColorTexture": {
          "index": 2
        },
        "baseColorFactor": [
          0.58823531866073608,
          0.58823531866073608,
          0.58823531866073608,
          1.0
        ]
      }
    },
    {
      "doubleSided": true,
      "pbrMetallicRoughness": {
        "baseColorTexture": {
          "index": 3
        },
        "baseColorFactor": [
          0.58823531866073608,
          0.58823531866073608,
          0.58823531866073608,
          1.0
        ]
      }
    },
    {
      "doubleSided": true,
      "pbrMetallicRoughness": {
        "baseColorTexture": {
          "index": 4
        },
        "baseColorFactor": [
          0.58799999952316284,
          0.58799999952316284,
          0.58799999952316284,
          1.0
        ]
      }
    }
  ],
  "scenes": [
    {
      "nodes": [
        0
      ]
    }
  ],
  "nodes": [
    {
      "name": "RootNode",
      "children": [
        1,
        2,
        3,
        4,
        5
      ]
    },
    {
      "name": "1",
      "mesh": 0,
      "translation": [
        1433.50842,
        -105.188774,
        1565.12683
      ],
      "scale": [
        1.26582193,
        1.10464537,
        4.909236
      ],
      "rotation": [
        -0.454081535,
        0.2610537,
        -0.05784252,
        0.849891245
      ]
    },
    {
      "name": "3",
      "mesh": 1,
      "translation": [
        150.947144,
        154.241791,
        -202.279312
      ],
      "scale": [
        0.7020807,
        0.7020807,
        1.15393829
      ],
      "rotation": [
        -0.707106769,
        0.0,
        0.0,
        0.707106769
      ]
    },
    {
      "name": "5",
      "mesh": 2,
      "translation": [
        -60.1578941,
        430.471558,
        26.12922
      ],
      "scale": [
        5.55154848,
        5.55154848,
        2.834894
      ],
      "rotation": [
        -0.707106769,
        0.0,
        0.0,
        0.707106769
      ]
    },
    {
      "name": "6",
      "mesh": 3,
      "translation": [
        -484.756378,
        0.0,
        1162.37842
      ],
      "scale": [
        2.54,
        1.90314388,
        1.0382992
      ],
      "rotation": [
        -0.707106769,
        0.0,
        0.0,
        0.707106769
      ]
    },
    {
      "name": "2",
      "mesh": 4,
      "translation": [
        455.4966,
        -3.94430453E-31,
        45.7918167
      ],
      "scale": [
        2.54,
        2.54,
        2.54
      ],
      "rotation": [
        -0.707106769,
        0.0,
        0.0,
        0.707106769
      ]
    }
  ]
}