{
  "asset": {
    "version": "2.0"
  },
  "scene": 0,
  "buffers": [
    {
      "byteLength": 299214,
      "uri": "sorceress.bin"
    }
  ],
  "bufferViews": [
    {
      "buffer": 0,
      "byteOffset": 0,
      "byteLength": 288132,
      "byteStride": 52,
      "target": 34962
    },
    {
      "buffer": 0,
      "byteOffset": 288132,
      "byteLength": 11082,
      "target": 34963
    }
  ],
  "accessors": [
    {
      "bufferView": 0,
      "byteOffset": 0,
      "componentType": 5126,
      "type": "VEC3",
      "count": 5541,
      "min": [
        -78.3434143,
        0.06886995,
        -5.356403
      ],
      "max": [
        78.34334,
        121.996384,
        36.504
      ]
    },
    {
      "bufferView": 0,
      "byteOffset": 12,
      "componentType": 5126,
      "type": "VEC3",
      "count": 5541
    },
    {
      "bufferView": 0,
      "byteOffset": 24,
      "componentType": 5126,
      "type": "VEC2",
      "count": 5541
    },
    {
      "bufferView": 1,
      "byteOffset": 0,
      "componentType": 5123,
      "type": "SCALAR",
      "count": 5541
    }
  ],
  "meshes": [
    {
      "primitives": [
        {
          "attributes": {
            "POSITION": 0,
            "NORMAL": 1,
            "TEXCOORD_0": 2
          },
          "indices": 3,
          "material": 0,
          "mode": 4
        }
      ]
    }
  ],
  "images": [
    {
      "uri": "sorceress.png"
    }
  ],
  "textures": [
    {
      "source": 0
    }
  ],
  "materials": [
    {
      "pbrMetallicRoughness": {
        "baseColorTexture": {
          "index": 0
        }
      }
    }
  ],
  "scenes": [
    {
      "nodes": [
        0
      ]
    }
  ],
  "nodes": [
    {
      "mesh": 0
    }
  ]
}