{
  "asset": {
    "version": "2.0"
  },
  "scene": 0,
  "buffers": [
    {
      "byteLength": 299214,
      "uri": "sorceress.bin"
    }
  ],
  "bufferViews": [
    {
      "buffer": 0,
      "byteOffset": 0,
      "byteLength": 288132,
      "byteStride": 52,
      "target": 34962
    },
    {
      "buffer": 0,
      "byteOffset": 288132,
      "byteLength": 11082,
      "target": 34963
    }
  ],
  "accessors": [
    {
      "bufferView": 0,
      "byteOffset": 0,
      "componentType": 5126,
      "type": "VEC3",
      "count": 5541,
      "min": [
        -78.3434143,
        0.06886995,
        -5.356403
      ],
      "max": [
        78.34334,
        121.996384,
        36.504
      ]
    },
    {
      "bufferView": 0,
      "byteOffset": 12,
      "componentType": 5126,
      "type": "VEC3",
      "count": 5541
    },
    {
      "bufferView": 0,
      "byteOffset": 24,
      "componentType": 5126,
      "type": "VEC2",
      "count": 5541
    },
    {
      "bufferView": 1,
      "byteOffset": 0,
      "componentType": 5123,
      "type": "SCALAR",
      "count": 5541
    }
  ],
  "meshes": [
    {
      "primitives": [
        {
          "attributes": {
            "POSITION": 0,
            "NORMAL": 1,
            "TEXCOORD_0": 2
          },
          "indices": 3,
          "material": 0,
          "mode": 4
        }
      ]
    }
  ],
  "images": [
    {
      "uri": "sorceress.png"
    }
  ],
  "textures": [
    {
      "source": 0
    }
  ],
  "materials": [
    {
      "doubleSided": true,
      "pbrMetallicRoughness": {
        "baseColorTexture": {
          "index": 0
        }
      }
    }
  ],
  "scenes": [
    {
      "nodes": [
        0
      ]
    }
  ],
  "nodes": [
    {
      "children": [
        1,
        3
      ]
    },
    {
      "name": "tuzhu_huonv",
      "children": [
        2
      ]
    },
    {
      "mesh": 0
    },
    {
      "name": "Bip01",
      "translation": [
        0.0,
        50.73209,
        -0.126115
      ],
      "scale": [
        1.00000048,
        1.00000048,
        1.0
      ],
      "rotation": [
        -0.113662347,
        0.6979125,
        -0.11366199,
        0.6979111
      ],
      "children": [
        4,
        5
      ]
    },
    {
      "name": "Bip01_____",
      "translation": [
        17.0100288,
        -50.83762,
        -5E-06
      ],
      "scale": [
        1.0,
        1.00000048,
        1.00000048
      ],
      "rotation": [
        0.113662347,
        -0.6979125,
        0.11366199,
        0.6979111
      ]
    },
    {
      "name": "Bip01_Pelvis",
      "translation": [
        -10.2140589,
        17.9635754,
        0.240647539
      ],
      "scale": [
        0.9999997,
        1.0,
        0.9999997
      ],
      "rotation": [
        0.4566422,
        0.539887846,
        -0.5398866,
        -0.456641644
      ],
      "children": [
        6
      ]
    },
    {
      "name": "Bip01_Spine",
      "translation": [
        6.836656,
        -0.000139996409,
        0.008041195
      ],
      "scale": [
        0.9999995,
        1.0,
        0.9999995
      ],
      "rotation": [
        9.13193945E-14,
        -0.0315211937,
        6.57900527E-15,
        0.9995031
      ],
      "children": [
        7,
        31,
        37
      ]
    },
    {
      "name": "Bip01_Spine1",
      "translation": [
        10.1548824,
        3.899634E-05,
        0.0103405518
      ],
      "scale": [
        1.00000036,
        1.0,
        1.00000036
      ],
      "rotation": [
        3.14783441E-21,
        -0.09706428,
        -1.14097439E-21,
        0.9952781
      ],
      "children": [
        8
      ]
    },
    {
      "name": "Bip01_Neck",
      "translation": [
        13.2835608,
        0.0,
        0.006339674
      ],
      "rotation": [
        -9.272328E-29,
        -4.39902426E-09,
        3.07748438E-29,
        1.0
      ],
      "children": [
        9,
        17,
        24
      ]
    },
    {
      "name": "Bip01_Head",
      "translation": [
        7.959917,
        -8.101761E-05,
        3.42346138E-05
      ],
      "scale": [
        1.00000036,
        1.0,
        1.00000036
      ],
      "rotation": [
        9.986157E-39,
        0.128387928,
        9.027662E-37,
        0.991724
      ],
      "children": [
        10,
        11,
        16
      ]
    },
    {
      "name": "Bip01_HeadNub",
      "translation": [
        13.9716339,
        0.0,
        -3E-06
      ]
    },
    {
      "name": "Bip01_Ponytail_1",
      "translation": [
        4.45635176,
        0.000207006931,
        4.448121
      ],
      "scale": [
        0.999999642,
        1.0,
        0.999999642
      ],
      "rotation": [
        -2.662467E-44,
        0.992755,
        -7.006492E-45,
        -0.120156273
      ],
      "children": [
        12
      ]
    },
    {
      "name": "Bip01_Ponytail_11",
      "translation": [
        14.0440493,
        5.799532E-05,
        0.0108263968
      ],
      "scale": [
        1.00000024,
        1.0,
        1.00000024
      ],
      "rotation": [
        0.0,
        0.119760081,
        0.0,
        0.992802858
      ],
      "children": [
        13
      ]
    },
    {
      "name": "Bip01_Ponytail_12",
      "translation": [
        14.044096,
        3.40342522E-05,
        0.0109280646
      ],
      "scale": [
        0.999999642,
        1.0,
        0.999999
      ],
      "rotation": [
        0.0,
        0.119760126,
        0.0,
        0.992802858
      ],
      "children": [
        14,
        15
      ]
    },
    {
      "name": "Bip01_Ponytail_1Nub",
      "translation": [
        14.0414352,
        0.0,
        4E-06
      ],
      "scale": [
        1.00000036,
        1.0,
        1.00000036
      ],
      "rotation": [
        0.707388163,
        1.06023788E-06,
        -0.706825256,
        -1.06023833E-06
      ]
    },
    {
      "name": "Dummy_huonv_toufa",
      "translation": [
        9.897224,
        -0.381798,
        -2.057617
      ],
      "scale": [
        1.0,
        1.00000048,
        1.00000048
      ],
      "rotation": [
        0.6406377,
        -0.640637755,
        0.299304754,
        -0.299304754
      ]
    },
    {
      "name": "Dummy_huonv_toubu",
      "translation": [
        8.116661,
        -0.381844,
        0.765804
      ],
      "scale": [
        1.0,
        0.9999998,
        0.9999998
      ],
      "rotation": [
        0.06932319,
        -0.06932319,
        -0.7037004,
        0.7037004
      ]
    },
    {
      "name": "Bip01_L_Clavicle",
      "translation": [
        0.085333325,
        3.16115,
        1.75829554
      ],
      "scale": [
        1.0,
        1.00000012,
        1.00000012
      ],
      "rotation": [
        0.707106769,
        0.70710665,
        0.000282534,
        0.000281123444
      ],
      "children": [
        18
      ]
    },
    {
      "name": "Bip01_L_UpperArm",
      "translation": [
        7.728988,
        1.334293E-05,
        2.66317711E-05
      ],
      "scale": [
        0.99999994,
        1.0,
        1.00000012
      ],
      "rotation": [
        0.178180367,
        -0.00139218091,
        0.00768768461,
        0.9839668
      ],
      "children": [
        19
      ]
    },
    {
      "name": "Bip01_L_Forearm",
      "translation": [
        17.8361778,
        4.906587E-06,
        2.106841E-05
      ],
      "scale": [
        0.9999997,
        1.0,
        0.999999344
      ],
      "rotation": [
        1.00010311E-08,
        -0.056812562,
        -8.748461E-08,
        0.998384833
      ],
      "children": [
        20
      ]
    },
    {
      "name": "Bip01_L_Hand",
      "translation": [
        14.1447487,
        -4E-06,
        2E-06
      ],
      "scale": [
        1.00000048,
        1.00000048,
        0.99999994
      ],
      "rotation": [
        -0.706818342,
        0.00308308145,
        -0.0277706478,
        0.7068431
      ],
      "children": [
        21,
        23
      ]
    },
    {
      "name": "Bip01_L_Finger0",
      "translation": [
        7.431734,
        2E-06,
        -4E-06
      ],
      "scale": [
        1.00000024,
        0.99999994,
        1.00000036
      ],
      "rotation": [
        -0.000296754646,
        0.000265234965,
        0.6664326,
        0.7455652
      ],
      "children": [
        22
      ]
    },
    {
      "name": "Bip01_L_Finger0Nub",
      "translation": [
        1.857933,
        4E-06,
        -8E-06
      ]
    },
    {
      "name": "Dummy_huonv_zuoshou",
      "translation": [
        2.729221,
        0.03284,
        -0.621723
      ],
      "scale": [
        0.9999996,
        1.00000012,
        1.00000012
      ],
      "rotation": [
        -0.0381714366,
        0.790958166,
        0.6094098,
        -0.0393415242
      ]
    },
    {
      "name": "Bip01_R_Clavicle",
      "translation": [
        0.08534725,
        -3.16120076,
        1.75828159
      ],
      "scale": [
        1.0,
        1.00000012,
        1.00000012
      ],
      "rotation": [
        -0.70710665,
        0.707106769,
        -0.000281123444,
        0.000282534
      ],
      "children": [
        25
      ]
    },
    {
      "name": "Bip01_R_UpperArm",
      "translation": [
        7.728984,
        1.96705914E-05,
        5.70330531E-06
      ],
      "scale": [
        0.99999994,
        1.0,
        1.00000012
      ],
      "rotation": [
        -0.178180382,
        -0.00139172166,
        -0.007687591,
        0.9839668
      ],
      "children": [
        26
      ]
    },
    {
      "name": "Bip01_R_Forearm",
      "translation": [
        17.8362045,
        -3.337385E-05,
        2.31939339E-05
      ],
      "scale": [
        1.00000036,
        1.00000012,
        0.999999
      ],
      "rotation": [
        1.22864154E-08,
        -0.0568125844,
        8.49928E-08,
        0.998384833
      ],
      "children": [
        27
      ]
    },
    {
      "name": "Bip01_R_Hand",
      "translation": [
        14.1447392,
        4.61614036E-05,
        8.388701E-06
      ],
      "scale": [
        0.9999998,
        1.00000048,
        0.9999996
      ],
      "rotation": [
        0.706822753,
        0.00180792483,
        -0.00180639711,
        0.7073861
      ],
      "children": [
        28,
        30
      ]
    },
    {
      "name": "Bip01_R_Finger0",
      "translation": [
        7.431725,
        3.43311622E-05,
        4.742106E-05
      ],
      "scale": [
        1.00000036,
        1.00000024,
        1.00000036
      ],
      "rotation": [
        0.000296890968,
        0.000265499664,
        -0.666432738,
        0.745565057
      ],
      "children": [
        29
      ]
    },
    {
      "name": "Bip01_R_Finger0Nub",
      "translation": [
        1.857938,
        2E-06,
        0.0
      ],
      "scale": [
        -1.0,
        1.0,
        1.0
      ],
      "rotation": [
        0.0,
        0.0,
        1.0,
        0.0
      ]
    },
    {
      "name": "Dummy_huonv_youshou",
      "translation": [
        4.487019,
        -0.224534,
        -0.649567
      ],
      "scale": [
        0.99999994,
        1.00000012,
        0.999999464
      ],
      "rotation": [
        0.790958166,
        -0.0381722078,
        -0.0393425822,
        0.60940975
      ]
    },
    {
      "name": "Bip01_L_Thigh",
      "translation": [
        -6.82361841,
        5.945396,
        0.422721237
      ],
      "scale": [
        0.99999994,
        0.9999999,
        0.9999998
      ],
      "rotation": [
        -0.05739121,
        0.00102901284,
        0.997093141,
        0.050104782
      ],
      "children": [
        32
      ]
    },
    {
      "name": "Bip01_L_Calf",
      "translation": [
        29.7269344,
        8.51988659E-07,
        -2.20765173E-06
      ],
      "scale": [
        0.9999999,
        1.0,
        1.00000072
      ],
      "rotation": [
        1.13436535E-07,
        -0.0419405252,
        -2.566867E-08,
        0.9991201
      ],
      "children": [
        33
      ]
    },
    {
      "name": "Bip01_L_Foot",
      "translation": [
        37.016758,
        -2.01534363E-06,
        6.381497E-06
      ],
      "scale": [
        1.00000083,
        1.0,
        1.00000012
      ],
      "rotation": [
        -0.00136499584,
        0.03306691,
        0.0500968,
        0.9981959
      ],
      "children": [
        34,
        36
      ]
    },
    {
      "name": "Bip01_L_Toe0",
      "translation": [
        4.005653,
        0.0,
        -7.560235
      ],
      "scale": [
        1.00000036,
        1.0,
        1.00000036
      ],
      "rotation": [
        0.0,
        0.7132502,
        0.0,
        0.700909436
      ],
      "children": [
        35
      ]
    },
    {
      "name": "Bip01_L_Toe0Nub",
      "translation": [
        0.582127,
        0.0,
        0.0
      ],
      "scale": [
        -1.0,
        1.0,
        1.0
      ],
      "rotation": [
        0.0,
        0.0,
        1.0,
        0.0
      ]
    },
    {
      "name": "Dummy_huonv_zuojiao",
      "translation": [
        -0.548033,
        -0.452547,
        -2.298528
      ],
      "scale": [
        1.0,
        1.00000072,
        0.999999642
      ],
      "rotation": [
        -0.00147219852,
        -0.00147219992,
        0.7071052,
        0.7071053
      ]
    },
    {
      "name": "Bip01_R_Thigh",
      "translation": [
        -6.8236165,
        -5.94536734,
        0.422702968
      ],
      "scale": [
        0.9999999,
        0.9999999,
        0.999999762
      ],
      "rotation": [
        -0.05739146,
        -0.0010305295,
        0.9970931,
        -0.0501048565
      ],
      "children": [
        38
      ]
    },
    {
      "name": "Bip01_R_Calf",
      "translation": [
        29.7269478,
        6.066541E-06,
        -2.75597358E-06
      ],
      "scale": [
        0.9999999,
        1.0,
        1.00000072
      ],
      "rotation": [
        -1.11243445E-07,
        -0.0419407748,
        -3.33091421E-08,
        0.9991201
      ],
      "children": [
        39
      ]
    },
    {
      "name": "Bip01_R_Foot",
      "translation": [
        37.0167427,
        5.804235E-07,
        6.88737828E-06
      ],
      "scale": [
        1.00000083,
        1.00000012,
        1.00000012
      ],
      "rotation": [
        0.00136649841,
        0.03306691,
        -0.0500968,
        0.9981959
      ],
      "children": [
        40,
        42
      ]
    },
    {
      "name": "Bip01_R_Toe0",
      "translation": [
        4.005653,
        4E-06,
        -7.560235
      ],
      "scale": [
        1.00000036,
        1.0,
        1.00000036
      ],
      "rotation": [
        0.0,
        0.7132502,
        0.0,
        0.700909436
      ],
      "children": [
        41
      ]
    },
    {
      "name": "Bip01_R_Toe0Nub",
      "translation": [
        0.582127,
        2E-06,
        0.0
      ]
    },
    {
      "name": "Dummy_huonv_youjiao",
      "translation": [
        -0.548034,
        0.781862,
        -2.298487
      ],
      "scale": [
        1.0,
        1.00000072,
        1.00000072
      ],
      "rotation": [
        -0.00147219864,
        -0.00147219864,
        0.7071053,
        0.7071052
      ]
    }
  ]
}