{
  "asset": {
    "version": "2.0"
  },
  "scene": 0,
  "buffers": [
    {
      "byteLength": 2332,
      "uri": "stone.bin"
    }
  ],
  "bufferViews": [
    {
      "buffer": 0,
      "byteOffset": 0,
      "byteLength": 540,
      "target": 34963
    },
    {
      "buffer": 0,
      "byteOffset": 540,
      "byteLength": 1792,
      "byteStride": 32,
      "target": 34962
    }
  ],
  "accessors": [
    {
      "bufferView": 0,
      "byteOffset": 0,
      "componentType": 5123,
      "type": "SCALAR",
      "count": 270
    },
    {
      "bufferView": 1,
      "byteOffset": 0,
      "componentType": 5126,
      "type": "VEC3",
      "count": 56,
      "min": [
        -369.352539,
        -137.353485,
        -47.7653351
      ],
      "max": [
        92.23984,
        213.372345,
        218.870636
      ]
    },
    {
      "bufferView": 1,
      "byteOffset": 12,
      "componentType": 5126,
      "type": "VEC3",
      "count": 56
    },
    {
      "bufferView": 1,
      "byteOffset": 24,
      "componentType": 5126,
      "type": "VEC2",
      "count": 56
    }
  ],
  "meshes": [
    {
      "primitives": [
        {
          "attributes": {
            "POSITION": 1,
            "NORMAL": 2,
            "TEXCOORD_0": 3
          },
          "indices": 0,
          "material": 0,
          "mode": 4
        }
      ]
    }
  ],
  "images": [
    {
      "uri": "stone.png"
    }
  ],
  "textures": [
    {
      "source": 0
    }
  ],
  "materials": [
    {
      "doubleSided": true,
      "pbrMetallicRoughness": {
        "baseColorTexture": {
          "index": 0
        },
        "baseColorFactor": [
          0.58823531866073608,
          0.58823531866073608,
          0.58823531866073608,
          1.0
        ]
      },
      "emissiveFactor": [
        1.0,
        1.0,
        1.0
      ]
    }
  ],
  "scenes": [
    {
      "nodes": [
        0
      ]
    }
  ],
  "nodes": [
    {
      "name": "kuangshi",
      "mesh": 0,
      "translation": [
        2.74732137,
        -0.401866972,
        0.356546879
      ],
      "scale": [
        0.019486621,
        0.019486621,
        0.0156774446
      ],
      "rotation": [
        0.0238773655,
        0.0,
        0.0,
        0.9997149
      ]
    }
  ]
}