{
  "asset": {
    "version": "2.0"
  },
  "scene": 0,
  "buffers": [
    {
      "byteLength": 19528,
      "uri": "tower.bin"
    }
  ],
  "bufferViews": [
    {
      "buffer": 0,
      "byteOffset": 0,
      "byteLength": 1216,
      "byteStride": 32,
      "target": 34962
    },
    {
      "buffer": 0,
      "byteOffset": 1216,
      "byteLength": 288,
      "target": 34963
    },
    {
      "buffer": 0,
      "byteOffset": 1504,
      "byteLength": 2528,
      "byteStride": 32,
      "target": 34962
    },
    {
      "buffer": 0,
      "byteOffset": 4032,
      "byteLength": 180,
      "target": 34963
    },
    {
      "buffer": 0,
      "byteOffset": 4212,
      "byteLength": 1952,
      "byteStride": 32,
      "target": 34962
    },
    {
      "buffer": 0,
      "byteOffset": 6164,
      "byteLength": 144,
      "target": 34963
    },
    {
      "buffer": 0,
      "byteOffset": 6308,
      "byteLength": 12224,
      "byteStride": 32,
      "target": 34962
    },
    {
      "buffer": 0,
      "byteOffset": 18532,
      "byteLength": 996,
      "target": 34963
    }
  ],
  "accessors": [
    {
      "bufferView": 0,
      "byteOffset": 0,
      "componentType": 5126,
      "type": "VEC3",
      "count": 38,
      "min": [
        -17.06314,
        0.0,
        -14.7771139
      ],
      "max": [
        17.06314,
        25.3379021,
        14.7771139
      ]
    },
    {
      "bufferView": 0,
      "byteOffset": 12,
      "componentType": 5126,
      "type": "VEC3",
      "count": 38
    },
    {
      "bufferView": 0,
      "byteOffset": 24,
      "componentType": 5126,
      "type": "VEC2",
      "count": 38
    },
    {
      "bufferView": 1,
      "byteOffset": 0,
      "componentType": 5123,
      "type": "SCALAR",
      "count": 144
    },
    {
      "bufferView": 2,
      "byteOffset": 0,
      "componentType": 5126,
      "type": "VEC3",
      "count": 79,
      "min": [
        55.4763031,
        47.87188,
        -51.37043
      ],
      "max": [
        100.559258,
        54.9980278,
        -11.3601723
      ]
    },
    {
      "bufferView": 2,
      "byteOffset": 12,
      "componentType": 5126,
      "type": "VEC3",
      "count": 79
    },
    {
      "bufferView": 2,
      "byteOffset": 24,
      "componentType": 5126,
      "type": "VEC2",
      "count": 79
    },
    {
      "bufferView": 3,
      "byteOffset": 0,
      "componentType": 5123,
      "type": "SCALAR",
      "count": 90
    },
    {
      "bufferView": 4,
      "byteOffset": 0,
      "componentType": 5126,
      "type": "VEC3",
      "count": 61,
      "min": [
        55.075592,
        40.53009,
        -57.86846
      ],
      "max": [
        100.960091,
        47.1584473,
        -4.885607
      ]
    },
    {
      "bufferView": 4,
      "byteOffset": 12,
      "componentType": 5126,
      "type": "VEC3",
      "count": 61
    },
    {
      "bufferView": 4,
      "byteOffset": 24,
      "componentType": 5126,
      "type": "VEC2",
      "count": 61
    },
    {
      "bufferView": 5,
      "byteOffset": 0,
      "componentType": 5123,
      "type": "SCALAR",
      "count": 72
    },
    {
      "bufferView": 6,
      "byteOffset": 0,
      "componentType": 5126,
      "type": "VEC3",
      "count": 382,
      "min": [
        51.7372475,
        0.739894,
        -56.73006
      ],
      "max": [
        103.733887,
        54.6123047,
        -6.892818
      ]
    },
    {
      "bufferView": 6,
      "byteOffset": 12,
      "componentType": 5126,
      "type": "VEC3",
      "count": 382
    },
    {
      "bufferView": 6,
      "byteOffset": 24,
      "componentType": 5126,
      "type": "VEC2",
      "count": 382
    },
    {
      "bufferView": 7,
      "byteOffset": 0,
      "componentType": 5123,
      "type": "SCALAR",
      "count": 498
    }
  ],
  "meshes": [
    {
      "primitives": [
        {
          "attributes": {
            "POSITION": 0,
            "NORMAL": 1,
            "TEXCOORD_0": 2
          },
          "indices": 3,
          "material": 0,
          "mode": 4
        }
      ]
    },
    {
      "primitives": [
        {
          "attributes": {
            "POSITION": 4,
            "NORMAL": 5,
            "TEXCOORD_0": 6
          },
          "indices": 7,
          "material": 1,
          "mode": 4
        }
      ]
    },
    {
      "primitives": [
        {
          "attributes": {
            "POSITION": 8,
            "NORMAL": 9,
            "TEXCOORD_0": 10
          },
          "indices": 11,
          "material": 2,
          "mode": 4
        }
      ]
    },
    {
      "primitives": [
        {
          "attributes": {
            "POSITION": 12,
            "NORMAL": 13,
            "TEXCOORD_0": 14
          },
          "indices": 15,
          "material": 3,
          "mode": 4
        }
      ]
    }
  ],
  "images": [
    {
      "uri": "tower.png"
    },
    {
      "uri": "tower_1.png"
    },
    {
      "uri": "tower_2.png"
    },
    {
      "uri": "tower_3.png"
    }
  ],
  "textures": [
    {
      "source": 0
    },
    {
      "source": 1
    },
    {
      "source": 2
    },
    {
      "source": 3
    }
  ],
  "materials": [
    {
      "pbrMetallicRoughness": {
        "baseColorTexture": {
          "index": 0
        }
      }
    },
    {
      "pbrMetallicRoughness": {
        "baseColorTexture": {
          "index": 1
        }
      }
    },
    {
      "pbrMetallicRoughness": {
        "baseColorTexture": {
          "index": 2
        }
      }
    },
    {
      "pbrMetallicRoughness": {
        "baseColorTexture": {
          "index": 3
        }
      }
    }
  ],
  "scenes": [
    {
      "nodes": [
        0,
        1,
        2,
        3
      ]
    }
  ],
  "nodes": [
    {
      "mesh": 0
    },
    {
      "mesh": 1
    },
    {
      "mesh": 2
    },
    {
      "mesh": 3
    }
  ]
}