{
  "asset": {
    "version": "2.0"
  },
  "scene": 0,
  "buffers": [
    {
      "byteLength": 12896,
      "uri": "townhall.bin"
    }
  ],
  "bufferViews": [
    {
      "buffer": 0,
      "byteOffset": 0,
      "byteLength": 1056,
      "target": 34963
    },
    {
      "buffer": 0,
      "byteOffset": 1056,
      "byteLength": 11840,
      "byteStride": 32,
      "target": 34962
    }
  ],
  "accessors": [
    {
      "bufferView": 0,
      "byteOffset": 0,
      "componentType": 5123,
      "type": "SCALAR",
      "count": 528
    },
    {
      "bufferView": 1,
      "byteOffset": 0,
      "componentType": 5126,
      "type": "VEC3",
      "count": 370,
      "min": [
        -124.820511,
        0.0,
        -124.820511
      ],
      "max": [
        124.820511,
        1375.1062,
        124.8205
      ]
    },
    {
      "bufferView": 1,
      "byteOffset": 12,
      "componentType": 5126,
      "type": "VEC3",
      "count": 370
    },
    {
      "bufferView": 1,
      "byteOffset": 24,
      "componentType": 5126,
      "type": "VEC2",
      "count": 370
    }
  ],
  "meshes": [
    {
      "primitives": [
        {
          "attributes": {
            "POSITION": 1,
            "NORMAL": 2,
            "TEXCOORD_0": 3
          },
          "indices": 0,
          "material": 0,
          "mode": 4
        }
      ]
    }
  ],
  "images": [
    {
      "uri": "townhall.png"
    }
  ],
  "textures": [
    {
      "source": 0
    }
  ],
  "materials": [
    {
      "doubleSided": true,
      "pbrMetallicRoughness": {
        "baseColorTexture": {
          "index": 0
        }
      }
    }
  ],
  "scenes": [
    {
      "nodes": [
        0
      ]
    }
  ],
  "nodes": [
    {
      "children": [
        1,
        3,
        4,
        5,
        6,
        7,
        8
      ]
    },
    {
      "name": "Box01",
      "translation": [
        -0.483092,
        0.0,
        -0.483092
      ],
      "scale": [
        0.293335,
        0.026372,
        0.293335
      ],
      "children": [
        2
      ]
    },
    {
      "mesh": 0
    },
    {
      "name": "fire1",
      "translation": [
        -23.550333,
        7.985337,
        -26.6622887
      ]
    },
    {
      "name": "fire2",
      "translation": [
        10.85911,
        25.3291035,
        -14.599596
      ]
    },
    {
      "name": "fire6",
      "translation": [
        -15.6008291,
        25.3220978,
        10.7930918
      ]
    },
    {
      "name": "fire5",
      "translation": [
        10.95894,
        28.10392,
        11.6224251
      ]
    },
    {
      "name": "fire3",
      "translation": [
        -7.894834,
        37.32113,
        -7.353837
      ]
    },
    {
      "name": "fire4",
      "translation": [
        5.673266,
        35.660614,
        4.011351
      ]
    }
  ]
}