{
  "asset": {
    "version": "2.0"
  },
  "scene": 0,
  "buffers": [
    {
      "byteLength": 2836,
      "uri": "warhammer.bin"
    }
  ],
  "bufferViews": [
    {
      "buffer": 0,
      "byteOffset": 0,
      "byteLength": 2560,
      "byteStride": 32,
      "target": 34962
    },
    {
      "buffer": 0,
      "byteOffset": 2560,
      "byteLength": 276,
      "target": 34963
    }
  ],
  "accessors": [
    {
      "bufferView": 0,
      "byteOffset": 0,
      "componentType": 5126,
      "type": "VEC3",
      "count": 80,
      "min": [
        -155.936966,
        -45.13334,
        -4.609795
      ],
      "max": [
        53.553936,
        36.0610275,
        4.609795
      ]
    },
    {
      "bufferView": 0,
      "byteOffset": 12,
      "componentType": 5126,
      "type": "VEC3",
      "count": 80
    },
    {
      "bufferView": 0,
      "byteOffset": 24,
      "componentType": 5126,
      "type": "VEC2",
      "count": 80
    },
    {
      "bufferView": 1,
      "byteOffset": 0,
      "componentType": 5123,
      "type": "SCALAR",
      "count": 138
    }
  ],
  "meshes": [
    {
      "primitives": [
        {
          "attributes": {
            "POSITION": 0,
            "NORMAL": 1,
            "TEXCOORD_0": 2
          },
          "indices": 3,
          "material": 0,
          "mode": 4
        }
      ]
    }
  ],
  "images": [
    {
      "uri": "warhammer.png"
    }
  ],
  "textures": [
    {
      "source": 0
    }
  ],
  "materials": [
    {
      "pbrMetallicRoughness": {
        "baseColorTexture": {
          "index": 0
        }
      }
    }
  ],
  "scenes": [
    {
      "nodes": [
        0
      ]
    }
  ],
  "nodes": [
    {
      "mesh": 0
    }
  ]
}