{
  "asset": {
    "version": "2.0"
  },
  "scene": 0,
  "buffers": [
    {
      "byteLength": 2836,
      "uri": "warhammer.bin"
    }
  ],
  "bufferViews": [
    {
      "buffer": 0,
      "byteOffset": 0,
      "byteLength": 2560,
      "byteStride": 32,
      "target": 34962
    },
    {
      "buffer": 0,
      "byteOffset": 2560,
      "byteLength": 276,
      "target": 34963
    }
  ],
  "accessors": [
    {
      "bufferView": 0,
      "byteOffset": 0,
      "componentType": 5126,
      "type": "VEC3",
      "count": 80,
      "min": [
        -155.936966,
        -45.13334,
        -4.609795
      ],
      "max": [
        53.553936,
        36.0610275,
        4.609795
      ]
    },
    {
      "bufferView": 0,
      "byteOffset": 12,
      "componentType": 5126,
      "type": "VEC3",
      "count": 80
    },
    {
      "bufferView": 0,
      "byteOffset": 24,
      "componentType": 5126,
      "type": "VEC2",
      "count": 80
    },
    {
      "bufferView": 1,
      "byteOffset": 0,
      "componentType": 5123,
      "type": "SCALAR",
      "count": 138
    }
  ],
  "meshes": [
    {
      "primitives": [
        {
          "attributes": {
            "POSITION": 0,
            "NORMAL": 1,
            "TEXCOORD_0": 2
          },
          "indices": 3,
          "material": 0,
          "mode": 4
        }
      ]
    }
  ],
  "images": [
    {
      "uri": "warhammer.png"
    }
  ],
  "textures": [
    {
      "source": 0
    }
  ],
  "materials": [
    {
      "doubleSided": true,
      "pbrMetallicRoughness": {
        "baseColorTexture": {
          "index": 0
        }
      }
    }
  ],
  "scenes": [
    {
      "nodes": [
        0
      ]
    }
  ],
  "nodes": [
    {
      "children": [
        1,
        3,
        4
      ]
    },
    {
      "name": "Box01",
      "translation": [
        -2.731982,
        46.01812,
        -23.8830528
      ],
      "scale": [
        0.510770857,
        0.5107711,
        0.5107712
      ],
      "rotation": [
        0.417451382,
        0.5725073,
        0.415759653,
        0.570187151
      ],
      "children": [
        2
      ]
    },
    {
      "mesh": 0
    },
    {
      "name": "Box02",
      "translation": [
        -132.466888,
        0.0,
        -114.734024
      ]
    },
    {
      "name": "Box03",
      "translation": [
        29.7981625,
        -165.8089,
        182.422821
      ],
      "rotation": [
        0.0,
        0.0,
        -0.707106769,
        0.707106769
      ]
    }
  ]
}